<?xml version="1.0" standalone="no"?>
<!DOCTYPE svg PUBLIC "-//W3C//DTD SVG 20010904//EN"
 "http://www.w3.org/TR/2001/REC-SVG-20010904/DTD/svg10.dtd">
<svg version="1.0" xmlns="http://www.w3.org/2000/svg"
 width="920.000000pt" height="623.000000pt" viewBox="0 0 920.000000 623.000000"
 preserveAspectRatio="xMidYMid meet">

<g transform="translate(0.000000,623.000000) scale(0.100000,-0.100000)"
fill="#000000" stroke="none">
<path d="M5039 6226 c-3 -3 -31 -7 -62 -8 -31 -1 -57 -6 -57 -11 0 -5 -12 -6
-26 -3 -15 4 -23 3 -20 -2 3 -5 -16 -17 -42 -27 -95 -36 -219 -147 -209 -186
7 -25 -26 -39 -88 -39 -38 0 -47 -4 -60 -27 -15 -27 -16 -27 -10 -3 5 23 4 23
-12 -5 -15 -25 -18 -55 -19 -175 -1 -124 -4 -151 -21 -185 -23 -44 -43 -129
-43 -177 0 -18 -7 -36 -17 -44 -15 -10 -16 -15 -5 -25 16 -17 15 -59 -1 -59
-8 0 -22 -9 -32 -20 -12 -14 -31 -20 -59 -20 -23 0 -67 -11 -98 -24 -32 -13
-55 -20 -53 -15 9 14 115 49 153 50 37 1 37 1 8 9 -93 28 -265 -73 -266 -156
-1 -27 -56 -84 -80 -84 -11 0 -36 -16 -56 -35 -19 -19 -40 -35 -45 -35 -6 0
-28 -19 -49 -41 l-38 -42 3 101 c2 77 -1 105 -11 113 -12 9 -9 18 17 46 32 38
49 72 49 104 0 10 9 28 20 39 12 12 18 25 15 30 -4 6 0 11 7 11 67 6 90 37 63
88 -23 46 -88 53 -157 17 -25 -13 -27 -12 -32 9 -3 13 -12 30 -19 37 -8 8 -18
63 -25 138 -9 95 -18 137 -37 176 -28 58 -63 80 -91 60 -15 -11 -16 -23 -10
-92 20 -232 20 -250 3 -235 -18 14 -25 36 -53 161 -9 41 -27 99 -40 128 -19
43 -27 52 -48 52 -34 0 -56 -25 -56 -63 0 -17 12 -78 26 -134 14 -57 24 -109
22 -115 -3 -7 -19 28 -37 77 -48 132 -75 175 -112 175 -22 0 -32 -6 -39 -26
-13 -32 -7 -54 47 -188 24 -59 42 -110 39 -113 -2 -3 -9 5 -15 16 -25 46 -113
141 -131 141 -37 0 -50 -12 -50 -46 0 -56 68 -192 90 -179 4 3 14 -3 21 -13
13 -15 12 -16 -3 -3 -11 8 -18 9 -18 3 0 -6 9 -17 20 -25 12 -8 18 -21 15 -29
-3 -8 1 -35 9 -59 9 -24 16 -61 16 -82 0 -21 7 -54 15 -74 23 -54 19 -79 -13
-92 -30 -13 -61 -51 -41 -51 8 0 8 -4 2 -12 -30 -37 -39 -357 -12 -409 4 -9
22 -22 39 -29 l30 -12 0 -87 c0 -57 5 -93 14 -106 7 -11 16 -38 20 -60 27
-150 149 -265 280 -265 46 0 69 7 142 45 47 25 92 45 99 45 8 0 40 24 72 54
32 29 72 60 90 69 17 9 45 33 62 54 17 20 33 34 36 31 7 -7 15 -220 13 -335
-2 -85 13 -337 22 -363 6 -21 2 -31 -20 -54 -47 -46 -56 -79 -37 -139 22 -76
17 -146 -16 -188 -30 -40 -57 -100 -57 -126 0 -10 -13 -34 -28 -53 -31 -38
-81 -125 -151 -265 -38 -73 -46 -100 -48 -150 -3 -84 -19 -184 -34 -201 -6 -7
-9 -23 -6 -34 3 -12 0 -20 -7 -20 -23 0 -107 -62 -121 -90 -8 -15 -17 -47 -21
-71 -3 -24 -10 -56 -16 -72 -9 -22 -7 -31 6 -46 10 -11 16 -36 16 -70 0 -88
18 -137 63 -176 l41 -35 -57 19 c-155 54 -291 164 -347 282 -41 86 -41 160 0
300 41 143 41 224 -1 307 -17 35 -49 77 -72 98 -83 71 -240 131 -437 166 -122
21 -465 16 -634 -10 -141 -22 -419 -85 -446 -102 -35 -21 4 -18 111 10 253 66
582 107 764 95 466 -30 707 -152 723 -366 3 -44 -4 -86 -33 -190 -45 -159 -44
-224 3 -319 28 -56 29 -59 10 -63 -39 -11 -97 168 -83 257 4 22 18 79 32 126
16 52 26 108 26 146 -1 176 -151 297 -433 350 -116 21 -456 30 -590 15 -202
-23 -540 -105 -540 -131 0 -14 -4 -14 128 26 208 63 375 86 622 88 299 1 493
-31 623 -102 70 -38 134 -112 153 -179 18 -63 14 -105 -22 -225 -93 -311 104
-585 492 -683 54 -14 103 -30 107 -34 5 -5 10 -73 11 -151 l2 -142 31 -37 c21
-26 33 -52 38 -89 4 -29 10 -52 14 -52 10 0 6 -119 -4 -143 -6 -13 1 -27 23
-50 29 -30 30 -34 18 -67 -18 -51 -93 -178 -138 -231 -50 -61 -68 -106 -68
-170 0 -29 -5 -67 -11 -84 -31 -85 35 -177 155 -214 77 -24 117 -26 201 -10
73 13 124 39 164 81 44 47 60 86 71 175 7 61 20 98 56 170 l46 92 -7 88 c-4
48 -11 103 -15 122 -7 24 -5 39 6 56 17 27 14 195 -7 318 -10 60 -10 104 0
223 7 82 14 153 15 157 1 4 38 23 84 42 160 65 305 161 447 296 l75 72 0 -37
c0 -20 -4 -36 -8 -36 -22 0 -34 -47 -23 -88 10 -35 8 -54 -9 -119 -12 -43 -25
-91 -29 -108 -4 -16 -22 -55 -39 -85 -16 -30 -33 -75 -37 -100 -11 -72 -35
-173 -47 -195 -6 -11 -23 -55 -38 -98 -15 -43 -35 -86 -44 -96 -9 -10 -16 -23
-16 -29 0 -7 -6 -12 -14 -12 -21 0 -46 -39 -46 -71 0 -15 -7 -32 -15 -39 -8
-7 -17 -28 -21 -47 -4 -23 -20 -47 -44 -69 -21 -19 -49 -60 -64 -96 -15 -35
-34 -77 -42 -95 -10 -22 -14 -71 -14 -163 0 -89 -5 -155 -17 -201 -14 -58 -14
-78 -4 -122 28 -121 126 -197 254 -197 85 0 123 31 181 151 42 87 43 94 28
169 -21 102 -24 167 -12 226 16 79 31 100 75 107 44 7 65 23 65 48 0 10 14 33
30 51 17 18 38 49 48 69 11 24 31 43 57 56 26 13 39 26 38 38 -3 33 65 142 97
155 22 9 33 23 40 50 6 21 26 57 45 80 19 22 39 56 46 74 11 31 15 34 46 29
51 -9 86 12 124 74 19 30 46 67 62 81 15 14 27 33 27 42 0 9 9 43 21 76 32 93
16 195 -41 259 -18 19 -17 23 13 115 40 124 69 200 84 225 12 19 16 37 47 210
27 149 36 225 36 299 0 56 4 75 15 80 19 7 19 48 1 84 -10 21 -11 44 -3 107 5
44 15 87 23 95 7 8 17 27 23 43 l11 27 57 -39 c101 -68 203 -108 327 -130 80
-15 226 -13 308 3 l67 13 33 -34 c42 -45 84 -66 113 -59 13 3 36 -1 51 -9 38
-19 47 -19 75 4 18 14 28 16 45 9 32 -15 73 -2 86 27 6 14 19 25 28 25 20 0
55 32 74 68 12 24 30 106 43 202 4 30 15 42 70 80 87 59 209 183 253 256 30
50 35 67 35 119 0 89 -31 132 -127 179 -40 19 -108 42 -150 51 -84 16 -318 20
-379 6 l-37 -8 -38 76 c-22 42 -60 104 -86 139 -27 35 -48 71 -48 81 0 21 -30
51 -52 51 -8 0 -23 9 -32 19 -10 11 -31 25 -47 31 -34 15 -36 23 -9 57 11 14
20 37 20 52 0 40 -98 199 -167 270 -51 53 -66 63 -87 59 -14 -3 -26 -2 -26 2
0 4 -11 24 -25 45 -14 20 -35 60 -45 88 -11 28 -32 64 -48 81 -27 28 -30 40
-35 115 -4 70 -11 96 -39 149 -45 88 -96 125 -181 130 -52 3 -67 0 -96 -20
-18 -12 -43 -41 -55 -63 -11 -22 -22 -42 -23 -44 -2 -2 -11 3 -20 12 -10 8
-30 19 -46 22 l-27 7 31 35 c24 28 29 41 24 62 -14 54 -16 110 -6 130 14 25
53 46 102 55 45 8 49 24 48 170 -1 140 -4 146 -67 166 -29 10 -54 19 -56 21
-2 2 -17 31 -35 65 -61 115 -167 199 -315 249 -61 20 -106 28 -200 32 -66 3
-124 3 -127 -1z m26 -45 c6 -21 49 -31 138 -31 47 0 62 4 75 20 17 20 19 20
72 4 62 -18 134 -53 169 -81 l23 -19 -27 -32 c-25 -29 -28 -31 -49 -17 -34 23
-133 54 -204 66 -122 19 -333 11 -404 -16 -9 -4 -19 3 -26 20 -7 14 -12 28
-12 30 0 9 82 46 133 60 74 20 104 19 112 -4z m203 7 c-3 -9 -31 -13 -93 -13
-62 0 -90 4 -92 13 -4 9 19 12 92 12 73 0 96 -3 93 -12z m-447 -106 c7 -19 6
-23 -7 -20 -9 2 -21 13 -25 26 -7 19 -6 23 7 20 9 -2 21 -13 25 -26z m-85 -85
c-78 -77 -98 -143 -104 -342 -2 -82 0 -174 6 -203 9 -51 9 -52 -9 -36 -39 36
-18 391 30 499 12 26 19 50 16 53 -9 9 -46 -86 -60 -156 -8 -37 -18 -97 -21
-133 l-7 -66 -26 13 c-14 8 -36 14 -48 14 -21 0 -23 5 -24 53 -2 73 2 133 10
165 7 24 14 28 61 35 78 11 81 23 5 19 -61 -4 -64 -5 -74 -34 -6 -17 -11 -40
-12 -52 0 -12 -3 -15 -6 -8 -3 8 0 33 7 57 l12 43 61 4 c58 4 63 7 97 48 19
25 52 62 73 84 37 39 38 39 52 18 14 -19 12 -24 -39 -75z m567 57 c183 -36
277 -125 308 -288 14 -79 -36 -416 -63 -416 -11 0 -12 -8 23 174 35 182 35
255 0 324 -45 87 -139 153 -273 189 -96 26 -323 24 -400 -4 -90 -33 -143 -75
-173 -138 -25 -50 -28 -71 -37 -228 -5 -94 -7 -192 -4 -217 5 -33 3 -41 -5
-33 -17 17 -24 295 -10 378 19 107 51 169 107 204 56 36 128 61 204 72 71 9
236 1 323 -17z m246 -33 c-41 -51 -56 -33 -18 21 15 20 25 26 32 19 6 -6 2
-20 -14 -40z m111 -87 c32 -69 57 -92 111 -100 l36 -6 7 -69 c7 -81 -3 -209
-16 -209 -6 0 -7 24 -3 60 4 33 4 92 0 130 -6 63 -9 70 -29 70 -12 0 -39 9
-61 20 -21 11 -41 18 -43 15 -9 -8 64 -45 91 -45 l27 0 -1 -102 c-1 -57 -4
-113 -7 -125 -4 -13 -26 -32 -53 -46 l-46 -23 -2 136 c-2 145 -10 188 -47 262
-34 67 -37 60 -5 -14 25 -61 26 -70 28 -278 1 -140 6 -228 14 -253 11 -34 10
-39 -12 -63 -55 -59 -195 -107 -356 -122 -80 -8 -83 -7 -83 12 0 12 -3 30 -6
42 -5 20 -1 21 98 27 57 4 128 13 158 22 68 18 70 18 70 0 0 -8 -15 -22 -32
-32 -26 -13 -29 -18 -15 -21 30 -6 67 25 67 57 0 16 6 31 13 34 18 7 33 60 57
202 25 149 25 236 2 307 -21 64 -68 148 -83 148 -5 0 2 16 17 35 l27 36 24
-23 c13 -12 37 -50 53 -84z m-394 81 c151 -29 256 -98 288 -191 23 -68 20
-149 -11 -307 -31 -160 -22 -152 -153 -160 -74 -5 -78 -5 -27 3 31 5 75 14 95
20 l39 10 27 119 c33 144 41 218 28 251 l-11 25 0 -27 c-1 -29 -15 -37 -25
-15 -3 6 -3 -8 0 -33 6 -45 6 -45 -14 -27 -20 18 -20 18 -11 -24 12 -53 7 -58
-20 -17 l-21 33 0 -75 -1 -75 -23 43 c-20 40 -24 42 -36 27 -13 -16 -16 -13
-32 24 -17 41 -18 41 -69 41 -29 0 -79 7 -111 16 -58 16 -59 16 -81 -5 -31
-28 -34 -27 -29 10 4 29 3 30 -18 19 -20 -10 -21 -10 -12 6 8 14 0 27 -42 68
-30 29 -61 72 -72 98 -13 34 -25 48 -39 49 -14 0 -8 6 19 19 64 30 215 44 331
32 55 -5 102 -9 103 -7 2 2 -13 9 -35 16 -59 19 -298 23 -360 6 -29 -8 -53
-13 -53 -11 0 5 62 36 90 45 43 13 205 10 286 -6z m-1846 -262 c20 -53 52
-185 46 -190 -1 -2 -16 -6 -33 -9 -25 -5 -32 -2 -36 12 -3 11 -8 29 -12 41 -5
18 -1 22 26 28 36 8 21 26 -16 19 -18 -3 -23 3 -33 41 -7 25 -12 54 -12 64 0
23 23 33 41 18 7 -7 5 -2 -5 11 -16 19 -17 22 -3 22 10 0 23 -21 37 -57z m176
-1 c24 -35 41 -119 48 -232 2 -41 9 -88 15 -103 13 -33 15 -117 3 -117 -5 0
-9 16 -10 35 -1 20 -7 55 -13 78 -7 23 -13 80 -15 127 -3 71 -20 173 -23 133
-1 -7 -12 -13 -25 -13 -18 0 -25 7 -30 31 -11 55 -8 72 12 65 16 -6 16 -5 0 7
-10 8 -15 17 -11 21 11 11 27 1 49 -32z m-338 -25 c6 -7 24 -48 40 -92 16 -44
33 -88 37 -97 5 -13 0 -20 -20 -28 -33 -12 -30 -14 -50 33 -15 36 -15 37 12
52 l28 16 -32 -5 c-30 -5 -34 -2 -48 30 -22 53 -20 104 4 104 10 0 23 -6 29
-13z m350 -120 c3 -31 0 -37 -17 -37 -22 0 -26 4 -35 42 -5 20 -2 28 11 31 31
8 38 1 41 -36z m861 -58 c-11 -34 -17 -64 -15 -66 3 -3 19 22 35 56 17 34 36
61 43 61 6 0 4 -8 -6 -19 -28 -30 -66 -165 -66 -231 0 -75 -6 -90 -38 -90
l-25 0 6 76 c8 89 31 183 58 236 11 21 21 38 23 38 2 0 -5 -28 -15 -61z m67
-137 c-22 -44 -23 -52 -11 -68 8 -11 15 -22 15 -25 0 -6 -45 -29 -57 -29 -20
0 26 224 55 268 l17 26 3 -61 c2 -50 -2 -71 -22 -111z m51 82 c-3 -29 -10 -61
-16 -71 -9 -14 -10 -12 -4 12 5 17 8 56 7 88 0 41 2 53 9 41 5 -9 7 -41 4 -70z
m-1461 61 c-9 -9 -12 -22 -8 -33 6 -14 7 -14 10 6 5 31 40 29 48 -2 8 -32 -2
-46 -31 -46 -18 0 -26 8 -35 35 -12 38 -7 55 16 55 14 0 14 -2 0 -15z m484
-35 c0 -27 -5 -43 -15 -47 -20 -7 -21 -6 -30 45 -6 40 -6 42 19 42 24 0 26 -4
26 -40z m-130 -5 c6 -19 21 -42 32 -50 17 -11 18 -15 7 -19 -14 -5 -100 -25
-109 -26 -3 0 -5 24 -5 54 0 48 3 55 25 64 37 15 38 15 50 -23z m-119 -27 c10
-13 18 -35 19 -50 0 -21 -10 -32 -54 -57 -30 -16 -57 -35 -61 -41 -3 -5 -11
-10 -17 -10 -6 0 -1 11 12 25 24 26 21 47 -3 26 -11 -8 -18 -7 -31 8 -15 16
-15 19 -1 24 8 4 15 12 15 18 0 8 -7 6 -18 -4 -10 -10 -22 -14 -25 -10 -4 3
-7 2 -7 -4 0 -5 9 -18 20 -28 11 -10 20 -23 20 -28 0 -15 -52 37 -73 73 -10
16 -14 30 -8 30 6 0 18 9 29 20 18 19 18 18 61 -36 24 -30 48 -53 54 -51 13 4
15 40 4 72 -6 18 6 31 41 44 2 0 12 -9 23 -21z m258 -60 c4 -13 11 -42 15 -66
l6 -42 -42 6 c-31 4 -39 3 -28 -5 13 -9 13 -10 0 -15 -71 -23 -75 -26 -25 -21
l50 5 -40 -25 c-22 -13 -64 -30 -93 -37 -60 -13 -86 -35 -31 -25 19 3 43 9 54
13 18 7 18 6 6 -9 -19 -24 -3 -21 33 7 17 13 49 32 71 43 l40 21 -1 -51 c-1
-46 -4 -52 -35 -68 -58 -32 -160 -59 -222 -61 -51 -1 -62 2 -78 21 -28 35 -23
47 7 17 22 -21 36 -26 78 -26 28 0 58 5 66 10 10 6 -2 7 -37 3 -58 -6 -98 11
-112 50 -7 18 -3 24 32 39 44 20 46 35 2 18 -15 -6 -30 -9 -32 -6 -8 7 79 54
135 71 60 20 69 30 17 21 -36 -7 -44 1 -23 22 8 8 8 12 1 12 -6 0 -13 -7 -16
-15 -4 -8 -25 -26 -49 -41 -24 -16 -55 -39 -70 -52 l-27 -25 -11 27 c-25 66
-3 90 135 146 112 45 112 46 95 25 -24 -29 -3 -25 25 5 37 38 91 42 104 8z
m1052 -59 c53 -27 58 -32 49 -50 -15 -27 -3 -58 27 -70 30 -11 33 -11 33 0 0
5 -9 13 -20 16 -14 4 -20 15 -20 36 0 16 1 29 3 29 2 0 42 -13 89 -29 67 -23
196 -51 231 -51 2 0 -1 -18 -6 -40 -13 -46 -11 -46 -130 -25 -156 27 -303 92
-341 150 -14 22 -14 27 2 54 9 17 19 26 20 20 2 -5 31 -23 63 -40z m-971 -3
c0 -26 -6 -18 -14 19 -5 22 -4 26 4 15 5 -8 10 -24 10 -34z m1130 -23 c0 -14
-23 -7 -90 27 -64 33 -46 41 25 12 36 -15 65 -33 65 -39z m-278 40 c-5 -10 -7
-25 -4 -33 3 -11 2 -12 -8 -4 -9 9 -9 17 -1 33 7 12 14 21 17 21 2 0 1 -8 -4
-17z m-703 -25 c9 -33 9 -33 10 -5 1 16 5 26 11 22 6 -3 10 -16 10 -28 -1 -16
-13 -28 -44 -42 -70 -33 -95 -11 -28 24 20 11 30 20 22 21 -8 0 -30 -9 -48
-20 -28 -17 -33 -18 -38 -5 -10 26 3 42 43 53 21 5 41 10 45 11 4 1 12 -14 17
-31z m1104 -38 c16 0 18 -3 10 -11 -15 -15 -113 8 -113 27 0 11 7 11 41 -1 23
-8 51 -15 62 -15z m582 20 c3 -6 -1 -13 -10 -16 -19 -8 -30 0 -20 15 8 14 22
14 30 1z m-1802 -23 c2 -7 -8 -28 -24 -47 -26 -31 -29 -32 -29 -12 0 24 27 72
40 72 4 0 10 -6 13 -13z m1757 4 c0 -6 -4 -13 -10 -16 -5 -3 -10 1 -10 9 0 9
5 16 10 16 6 0 10 -4 10 -9z m-30 -10 c0 -15 -25 -20 -143 -31 -103 -10 -148
-9 -295 6 -104 11 -38 19 141 17 100 -2 202 1 227 6 63 12 70 12 70 2z m498
-17 c46 -19 88 -58 113 -105 26 -51 42 -162 34 -237 -6 -54 -9 -61 -19 -46 -9
12 -15 14 -20 6 -16 -27 -21 -7 -21 91 0 95 -2 108 -30 163 -40 78 -79 99
-154 83 -28 -6 -51 -15 -51 -20 0 -5 4 -9 10 -9 18 0 -12 -48 -34 -54 -33 -9
-35 -8 -26 24 29 102 106 143 198 104z m-2170 -19 c5 -4 -40 -75 -47 -75 -4 0
-15 6 -24 13 -15 11 -15 14 4 45 17 26 26 31 43 26 11 -4 22 -8 24 -9z m-118
-45 c0 -10 -4 -22 -10 -25 -6 -4 -10 7 -10 25 0 18 4 29 10 25 6 -3 10 -15 10
-25z m924 21 c-17 -4 -36 -11 -42 -15 -6 -3 -13 -2 -16 3 -7 10 21 18 64 19
21 0 20 -1 -6 -7z m591 -28 c2 -21 -3 -23 -52 -23 -50 0 -53 1 -53 26 0 24 2
25 52 22 45 -3 52 -6 53 -25z m-663 -1 c21 -21 -2 -29 -61 -19 -48 8 -65 7
-92 -7 -34 -17 -54 -11 -39 13 16 28 167 38 192 13z m1444 -24 c33 -40 49 -78
59 -138 l7 -45 -23 22 c-14 12 -41 29 -61 37 -20 9 -39 25 -43 36 -4 11 -21
27 -38 36 -18 9 -33 18 -35 19 -2 2 4 17 13 34 13 27 21 31 54 31 32 0 44 -6
67 -32z m-296 12 c10 -7 1 -8 -30 -4 -56 8 -64 14 -19 14 19 0 41 -5 49 -10z
m-1930 -35 c0 -6 -25 -39 -55 -72 -30 -34 -55 -66 -55 -71 0 -22 -222 -33
-258 -13 -14 9 -12 11 13 12 l30 1 -36 12 c-19 6 -46 19 -60 28 l-24 17 33
-11 c18 -6 51 -8 72 -5 35 4 39 3 51 -26 11 -25 14 -27 19 -12 5 13 9 15 14 7
4 -7 28 -11 59 -10 39 1 43 2 17 5 -60 6 -132 53 -82 53 27 0 174 74 195 98
16 17 23 19 43 10 13 -6 24 -16 24 -23z m1092 -63 c112 -40 243 -56 430 -50
154 5 197 14 276 56 23 12 32 22 28 35 -4 15 -2 16 10 6 41 -34 -7 -74 -126
-106 -102 -27 -416 -24 -525 6 -99 27 -232 88 -251 115 -25 36 -15 37 30 2 24
-18 82 -47 128 -64z m-202 72 c0 -9 -5 -12 -12 -8 -8 5 -9 2 -5 -9 4 -11 1
-17 -8 -17 -18 0 -20 -21 -4 -37 9 -9 6 -25 -11 -65 -34 -79 -39 -101 -56
-248 -18 -152 -20 -330 -5 -358 11 -21 -1 -48 -18 -38 -24 15 -52 89 -63 165
-11 80 -8 130 26 397 22 167 57 234 123 234 23 0 33 -5 33 -16z m-321 -8 c9
-11 1 -15 -46 -21 -65 -8 -142 -36 -186 -67 -29 -21 -29 -21 -18 0 21 39 146
101 207 102 17 0 37 -6 43 -14z m1421 4 c0 -5 -2 -10 -4 -10 -3 0 -8 5 -11 10
-3 6 -1 10 4 10 6 0 11 -4 11 -10z m-1234 -9 c-3 -4 -10 -20 -16 -35 -9 -26
-11 -26 -39 -11 -17 8 -47 15 -68 15 l-38 1 24 19 c17 15 38 20 83 20 32 0 57
-4 54 -9z m684 -1 c0 -6 -23 -9 -52 -9 l-53 2 40 7 c60 11 65 11 65 0z m-1090
-14 c0 -2 -8 -10 -17 -17 -16 -13 -17 -12 -4 4 13 16 21 21 21 13z m-320 -10
c0 -2 -7 -9 -15 -16 -13 -11 -14 -10 -9 4 5 14 24 23 24 12z m1068 -92 c39
-13 52 -23 53 -38 1 -19 2 -19 6 -3 4 15 11 18 36 13 144 -25 234 -29 370 -19
169 14 242 37 301 95 26 25 48 38 67 38 43 0 86 -44 106 -108 25 -78 24 -299
-1 -504 l-20 -157 -26 22 c-15 12 -36 27 -46 34 -15 9 -11 10 21 3 36 -8 38
-7 21 6 -11 8 -26 14 -34 14 -11 0 -13 10 -8 43 3 23 8 137 12 252 5 171 4
218 -8 251 -10 28 -12 47 -5 59 8 14 6 15 -11 6 -37 -20 -45 17 -10 49 18 17
19 20 5 20 -30 0 -59 -38 -52 -69 8 -35 -14 -55 -91 -83 -50 -18 -86 -22 -233
-26 -96 -2 -213 -1 -259 3 -71 6 -85 10 -89 26 -6 23 -23 25 -23 4 0 -21 -37
-12 -125 30 -74 36 -135 85 -135 108 0 11 16 6 63 -18 34 -18 86 -41 115 -51z
m1030 60 c12 -8 22 -22 22 -30 0 -20 -13 -17 -28 6 -13 21 -56 27 -67 10 -5
-8 -11 -7 -21 1 -7 6 -11 15 -8 20 9 15 78 10 102 -7z m-1432 -19 c28 -18 28
6 -5 -240 l-17 -119 -98 -2 c-105 -2 -128 -11 -106 -41 13 -17 13 -17 -4 -2
-21 19 -50 181 -50 284 l-1 70 50 18 c40 14 70 17 149 13 70 -4 96 -2 89 5
-14 14 -201 13 -239 -1 -22 -9 -26 -9 -17 1 35 36 202 45 249 14z m-308 -32
c-11 -23 -18 -52 -16 -74 l3 -36 -35 11 -35 11 30 6 c23 5 18 7 -25 8 l-55 2
30 25 c26 22 115 84 121 84 1 0 -7 -17 -18 -37z m745 -188 c70 -55 182 -128
210 -138 7 -2 10 -7 7 -10 -3 -4 -28 0 -55 8 -60 19 -73 10 -18 -11 36 -14 42
-21 45 -53 2 -20 -3 -65 -10 -99 l-14 -62 -64 0 c-72 0 -104 -20 -104 -65 0
-27 3 -27 -188 -4 -46 5 -92 7 -102 4 -15 -5 -21 0 -24 17 -12 56 -12 115 0
244 8 77 14 152 14 168 0 16 6 36 13 45 8 9 17 40 20 69 3 29 9 56 12 61 3 5
36 -22 74 -60 38 -38 74 -69 79 -69 6 0 -18 28 -54 63 -35 35 -64 69 -64 76 0
8 33 -17 73 -55 40 -38 108 -96 150 -129z m-843 182 c0 -2 -10 -12 -22 -23
l-23 -19 19 23 c18 21 26 27 26 19z m1908 -21 c27 -9 29 -42 3 -49 -53 -14
-141 22 -141 58 0 12 92 5 138 -9z m-2225 -8 c8 -12 7 -23 -2 -41 -7 -14 -10
-33 -7 -43 9 -30 -6 -42 -74 -60 -49 -12 -86 -15 -149 -10 -122 9 -131 13
-131 48 0 17 -4 27 -10 23 -5 -3 -10 -15 -10 -26 0 -10 -4 -19 -10 -19 -5 0
-10 8 -10 19 0 10 -3 39 -6 65 l-7 47 37 -21 c30 -18 36 -28 36 -55 0 -19 5
-37 10 -40 6 -4 10 8 10 29 0 22 5 36 13 36 188 8 287 26 287 52 0 6 -7 7 -16
4 -9 -3 -12 -2 -9 5 9 14 36 7 48 -13z m2317 -41 c0 -4 -11 0 -25 9 -14 9 -25
20 -25 26 0 11 49 -23 50 -35z m-376 17 c7 -19 -1 -34 -19 -34 -26 0 -26 -20
1 -45 26 -24 26 -25 5 -25 -12 0 -21 -6 -21 -15 0 -12 7 -14 27 -9 l26 7 -7
-174 c-8 -200 -17 -267 -37 -280 -8 -6 -30 -7 -49 -5 -19 3 -93 8 -165 12
-118 6 -132 9 -154 30 -13 13 -30 24 -39 24 -12 0 -14 14 -8 90 8 97 3 130
-20 130 -33 0 -9 22 69 60 144 73 290 164 332 207 46 47 51 49 59 27z m-1746
-44 c-13 -21 -28 -27 -28 -10 0 5 8 14 18 19 23 14 24 14 10 -9z m2105 -2 c15
-22 -8 -99 -27 -92 -14 5 -30 89 -20 106 8 13 35 6 47 -14z m-2736 -113 c1
-66 3 -129 4 -140 2 -11 2 -53 1 -93 l-2 -72 -27 6 c-16 4 -30 8 -32 10 -2 2
-6 48 -9 101 -4 94 -4 97 14 83 18 -15 18 -14 0 14 -16 25 -18 41 -12 115 6
84 15 104 46 98 12 -2 15 -25 17 -122z m1618 97 c48 -13 110 -16 305 -17 135
0 259 4 275 8 29 8 28 7 -10 -21 -34 -26 -259 -152 -270 -152 -2 0 -5 12 -7
28 -3 25 -6 27 -48 27 -43 0 -45 -1 -48 -32 l-3 -33 -57 36 c-49 32 -145 106
-216 167 -20 18 -20 19 -1 12 11 -3 47 -14 80 -23z m1008 22 c35 -6 37 -9 37
-42 0 -34 0 -35 -37 -28 -21 3 -48 6 -60 6 -20 0 -23 5 -23 35 0 39 7 41 83
29z m-1820 -18 c29 -12 35 -21 45 -67 6 -30 15 -81 18 -113 6 -48 14 -67 41
-96 32 -37 33 -40 33 -127 0 -63 -4 -95 -15 -109 -20 -26 -19 -39 2 -23 17 13
17 12 3 -9 -22 -35 -63 -56 -93 -49 -23 6 -25 11 -24 67 l0 60 34 0 c42 0 44
18 2 22 -24 2 -36 11 -51 38 l-18 35 29 12 c16 7 32 17 36 23 7 11 -35 30 -69
30 -27 0 -50 41 -41 74 l6 21 -18 -21 c-17 -19 -21 -20 -41 -6 -21 14 -22 16
-6 33 25 27 8 37 -27 16 -41 -23 -46 -22 -52 13 -10 48 -1 59 46 53 70 -8 103
-22 153 -66 31 -27 43 -34 35 -20 -24 46 -102 92 -175 104 l-51 8 60 -4 c33
-2 71 -7 85 -10 19 -5 22 -4 10 4 -8 6 -39 16 -68 22 l-52 12 22 24 c23 25 53
29 106 14 17 -5 32 -7 32 -5 0 12 -73 34 -110 34 -22 0 -40 5 -40 10 0 15 116
12 153 -4z m1587 -12 c0 -8 -4 -12 -10 -9 -5 3 -10 10 -10 16 0 5 5 9 10 9 6
0 10 -7 10 -16z m506 -55 c21 -42 17 -46 -16 -14 -32 30 -45 80 -14 54 8 -7
22 -25 30 -40z m-2283 9 c-31 -34 -43 -63 -43 -101 0 -31 -3 -35 -25 -33 -20
1 -25 6 -25 26 0 14 7 36 16 48 8 12 11 22 5 22 -5 0 -19 -21 -32 -47 -21 -45
-39 -67 -47 -58 -7 6 38 85 69 119 16 19 40 37 52 39 48 9 51 8 30 -15z m2207
-20 c0 -5 -9 -4 -20 2 -11 6 -20 12 -20 14 0 2 9 2 20 -1 11 -3 20 -9 20 -15z
m-2390 -53 l0 -64 -40 -11 c-62 -17 -223 -21 -232 -7 -18 28 -9 47 25 47 39 0
167 33 193 49 17 11 17 12 -6 6 -48 -12 -220 -18 -220 -8 0 15 36 23 115 24
39 0 88 6 110 14 22 7 43 13 48 14 4 1 7 -28 7 -64z m2198 51 c75 -20 104 -48
65 -60 -15 -5 -18 -18 -18 -88 0 -46 4 -91 9 -101 16 -33 -7 -39 -80 -21 -81
20 -76 17 -68 38 4 11 19 16 53 17 35 0 41 2 26 9 -11 5 -32 9 -47 9 -26 1
-28 4 -28 40 0 21 3 53 6 71 7 30 8 31 43 25 20 -3 45 -9 56 -12 16 -4 17 -3
8 7 -6 7 -33 18 -60 25 -37 9 -49 17 -51 34 -4 25 11 27 86 7z m342 -155 c12
-30 34 -70 51 -88 16 -19 29 -44 29 -56 0 -36 -76 -138 -138 -184 -60 -46
-224 -133 -249 -133 -10 0 -13 9 -11 31 3 27 9 33 53 48 28 9 75 33 105 52 59
38 220 185 220 201 0 5 -38 -26 -85 -68 -98 -90 -137 -116 -83 -57 45 51 62
77 83 126 22 53 12 46 -23 -17 -50 -88 -207 -234 -229 -212 -8 8 36 66 106
140 36 38 59 65 51 61 -34 -19 -115 -93 -146 -134 -34 -44 -34 -44 -34 -15 0
16 3 46 7 67 5 31 9 38 24 34 24 -6 55 31 71 84 6 22 17 39 25 39 42 0 69 82
43 130 -6 11 -8 31 -4 45 l7 26 30 -28 c22 -21 27 -23 19 -8 -5 11 -20 29 -31
39 -12 11 -21 26 -21 35 1 30 109 -102 130 -158z m-162 130 c9 -5 11 -17 6
-35 -3 -15 -1 -32 6 -40 6 -8 10 -32 8 -53 -2 -31 -9 -41 -33 -53 -22 -10 -35
-27 -45 -58 -15 -44 -37 -58 -33 -21 2 11 -2 30 -9 42 -6 12 -10 51 -9 86 2
54 6 68 24 80 12 9 31 25 42 37 23 26 26 26 43 15z m-918 -63 c-1 -22 -1 -22
-15 -4 -7 10 -18 15 -24 12 -5 -4 -12 -2 -16 4 -4 6 6 10 24 10 26 0 31 -4 31
-22z m-1264 -74 c52 -26 134 -104 134 -128 0 -8 7 -31 16 -52 22 -52 13 -150
-18 -207 -13 -23 -41 -54 -63 -69 -60 -41 -67 -34 -12 13 26 23 46 44 43 46
-3 3 -20 -7 -38 -22 l-33 -28 -5 64 -5 64 -8 -71 c-9 -81 -40 -150 -77 -173
-22 -14 -24 -14 -13 0 19 23 43 128 42 179 l-1 45 -15 -65 c-21 -99 -52 -157
-107 -207 -70 -62 -120 -86 -182 -86 -64 1 -87 13 -118 66 -22 38 -60 156 -53
164 2 1 19 -2 38 -7 44 -13 160 -13 179 0 11 7 3 9 -25 4 -91 -13 -257 43
-276 93 -5 14 -8 28 -5 30 2 3 39 -3 82 -12 142 -32 308 -7 375 56 18 16 34
28 36 25 12 -12 -14 -59 -44 -77 -19 -12 -32 -23 -29 -26 7 -7 84 35 89 49 3
7 6 2 6 -11 1 -14 -9 -36 -21 -49 -14 -15 -17 -23 -9 -20 8 2 24 16 35 31 l20
27 -29 88 c-15 48 -32 98 -37 112 -7 21 -2 18 27 -15 20 -21 38 -49 41 -62 5
-20 24 -34 24 -18 0 14 -35 73 -59 99 -14 16 -19 25 -11 21 48 -27 86 -66 121
-127 23 -38 42 -68 44 -66 2 2 -1 25 -6 53 -18 96 -76 177 -159 220 l-45 24
48 1 c87 0 168 -62 208 -161 13 -32 18 -38 18 -21 1 36 -44 115 -87 154 -48
43 -98 61 -157 56 -43 -3 -49 5 -10 15 45 11 81 6 131 -19z m-544 -112 c-3
-89 -4 -91 -25 -83 -20 8 -22 16 -25 105 l-3 97 28 -14 c28 -15 28 -15 25
-105z m367 55 c16 -94 15 -105 -19 -122 -38 -20 -40 -19 -41 8 l-2 22 -4 -23
c-6 -33 -44 -44 -149 -44 -137 -1 -134 -3 -134 100 l0 87 123 1 c89 0 131 5
157 16 19 9 40 17 46 17 7 1 17 -27 23 -62z m603 18 c-2 -14 -6 -25 -8 -25 -2
0 -4 11 -4 25 0 14 4 25 9 25 4 0 6 -11 3 -25z m831 5 c-3 -11 -7 -20 -9 -20
-2 0 -13 9 -24 20 l-20 20 29 0 c24 0 28 -3 24 -20z m30 -47 c-7 -91 -13 -93
-13 -5 0 40 4 72 9 72 5 0 6 -30 4 -67z m-909 51 c14 -5 16 -29 16 -158 0
-193 14 -304 48 -381 21 -48 26 -76 26 -141 1 -90 9 -106 70 -139 32 -18 33
-18 20 -54 -7 -20 -13 -48 -14 -62 0 -29 -22 -43 -51 -34 -20 7 -23 23 -13 73
5 27 9 30 25 22 28 -15 38 -12 32 11 -4 15 -8 17 -14 8 -31 -50 -142 217 -168
405 -13 95 -15 456 -2 456 5 0 16 -3 25 -6z m-425 -91 c23 -19 51 -52 61 -74
28 -54 25 -59 -9 -12 -16 22 -57 62 -90 87 -34 26 -61 49 -61 51 0 12 64 -21
99 -52z m1297 11 c-3 -26 -6 -57 -6 -70 0 -13 -4 -24 -8 -24 -4 0 -7 31 -7 70
0 53 3 70 14 70 11 0 12 -10 7 -46z m-1073 19 c-7 -2 -19 -2 -25 0 -7 3 -2 5
12 5 14 0 19 -2 13 -5z m2376 -82 c79 -116 86 -134 64 -172 -16 -27 -19 -28
-30 -12 -7 9 -13 27 -13 39 0 23 -65 128 -99 159 -12 10 -21 24 -21 31 0 11
26 44 35 44 1 0 30 -40 64 -89z m-2082 32 c-3 -10 -5 -4 -5 12 0 17 2 24 5 18
2 -7 2 -21 0 -30z m48 -44 c3 -20 16 -57 29 -83 l23 -46 -24 0 c-31 0 -42 30
-48 129 -6 77 7 77 20 0z m1408 56 c8 -18 -45 -255 -57 -255 -4 0 -5 8 -2 17
6 15 36 221 36 245 0 14 18 9 23 -7z m-1486 -27 c-3 -8 -6 -5 -6 6 -1 11 2 17
5 13 3 -3 4 -12 1 -19z m1503 -172 c-21 -120 -87 -381 -89 -346 -2 38 66 396
96 510 7 25 7 25 11 -4 2 -17 -6 -88 -18 -160z m90 169 c0 -33 -33 -247 -51
-335 -11 -52 -36 -151 -56 -219 -19 -68 -36 -138 -36 -155 -2 -22 -9 -34 -27
-43 l-25 -13 24 -6 c22 -7 23 -10 17 -59 -5 -47 -35 -136 -36 -109 0 6 -9 23
-21 38 -13 17 -22 45 -24 78 -2 27 -6 53 -9 55 -3 3 7 15 21 27 20 17 33 52
64 171 54 206 96 409 105 505 6 76 8 80 30 80 14 0 24 -6 24 -15z m-2670 -26
c0 -13 -13 -11 -35 5 -18 13 -18 14 8 9 15 -3 27 -9 27 -14z m1907 -11 c-3 -7
-5 -2 -5 12 0 14 2 19 5 13 2 -7 2 -19 0 -25z m1162 -65 c-33 -70 -34 -71 -6
-34 14 18 29 46 32 62 4 16 10 29 14 29 16 0 71 -108 71 -140 l0 -34 -30 34
c-34 41 -39 32 -9 -17 25 -39 19 -78 -11 -88 -15 -5 -19 -12 -15 -26 7 -22
-10 -26 -19 -4 -3 8 -10 15 -16 15 -7 0 -7 -6 0 -21 14 -25 1 -43 -49 -69 -63
-31 -98 -34 -127 -11 -43 34 -51 24 -13 -15 30 -32 31 -35 11 -29 -13 4 -29 2
-37 -5 -22 -18 -56 -5 -95 35 -32 33 -33 35 -11 35 34 0 185 88 228 133 l38
40 -68 -48 c-108 -76 -256 -118 -286 -81 -10 12 -6 16 21 21 90 20 329 204
376 290 l17 30 3 -27 c2 -15 -7 -49 -19 -75z m-2605 58 c-30 -27 -103 -51
-155 -51 -39 0 -9 17 39 23 50 6 122 35 122 49 0 4 6 8 13 8 6 0 -2 -13 -19
-29z m613 -38 c-2 -16 -4 -5 -4 22 0 28 2 40 4 28 2 -13 2 -35 0 -50z m30 -10
c-3 -10 -5 -2 -5 17 0 19 2 27 5 18 2 -10 2 -26 0 -35z m-607 4 c0 -18 -2 -19
-10 -7 -13 20 -13 43 0 35 6 -3 10 -16 10 -28z m-33 -29 c-2 -13 -4 -5 -4 17
-1 22 1 32 4 23 2 -10 2 -28 0 -40z m1476 38 c31 -13 33 -15 28 -57 l-6 -44
-3 37 c-2 20 -9 41 -16 47 -10 8 -12 0 -8 -44 2 -30 1 -71 -2 -91 l-7 -36
-102 6 c-56 4 -125 9 -153 12 l-51 6 4 76 c3 43 6 83 8 90 6 18 264 17 308 -2z
m-1713 -16 c0 -5 -9 -10 -20 -10 -11 0 -20 5 -20 10 0 6 9 10 20 10 11 0 20
-4 20 -10z m1187 -36 c42 -11 16 -19 -51 -16 -37 2 -64 8 -60 13 6 10 77 12
111 3z m878 -10 c55 -2 106 -3 113 -4 8 0 27 -13 43 -29 27 -28 29 -35 29
-108 0 -71 -32 -353 -45 -392 -7 -22 -62 -58 -119 -77 -45 -16 -51 -16 -76 0
-16 9 -40 16 -55 16 -24 0 -26 -3 -21 -26 l7 -27 -98 7 c-54 4 -154 13 -223
21 -156 19 -357 36 -390 35 -67 -2 -198 24 -252 51 -31 16 -60 34 -64 40 -9
15 -5 164 5 192 6 17 17 21 55 22 27 0 51 6 55 13 5 9 26 12 62 10 l53 -3 1
-105 c0 -58 4 -113 9 -122 5 -11 4 -18 -2 -18 -14 0 -23 30 -33 114 -8 71 -8
71 -5 -22 l4 -94 -82 6 c-50 4 -75 3 -66 -2 8 -5 57 -12 109 -15 83 -5 97 -9
120 -31 36 -34 51 -33 20 0 l-24 27 40 -6 c22 -4 132 -11 245 -17 113 -6 257
-15 320 -20 63 -5 147 -11 187 -12 56 -2 69 -6 61 -15 -17 -21 14 -15 40 7 15
12 25 34 28 57 2 21 13 117 25 213 11 97 19 202 17 235 l-3 60 -115 7 c-63 5
-151 12 -195 17 l-80 10 100 -6 c55 -3 145 -7 200 -9z m-723 -4 c28 0 29 -1
27 -50 l-3 -50 -57 0 c-32 0 -64 -3 -73 -6 -13 -5 -16 2 -16 40 0 45 1 46 33
48 l32 1 -32 4 c-18 2 -33 9 -33 15 0 7 16 9 46 4 26 -3 60 -6 76 -6z m608
-16 c174 -9 157 -8 164 -15 5 -5 -108 -97 -149 -121 -6 -4 -53 0 -105 8 -52 7
-100 14 -106 14 -7 0 -8 16 -1 53 14 76 15 79 34 73 10 -2 83 -8 163 -12z
m-760 -76 c-1 -40 -7 -86 -13 -102 -12 -28 -16 -30 -75 -30 l-62 -1 0 65 c0
36 3 82 6 103 l7 37 68 0 69 0 0 -72z m-1142 55 c-15 -2 -42 -2 -60 0 -18 2
-6 4 27 4 33 0 48 -2 33 -4z m789 -70 c-2 -16 -4 -3 -4 27 0 30 2 43 4 28 2
-16 2 -40 0 -55z m177 68 c14 -21 -7 -43 -36 -39 -22 4 -28 1 -24 -9 3 -8 1
-11 -4 -8 -16 10 -11 43 8 54 21 13 49 14 56 2z m-265 -260 c18 -69 37 -122
77 -217 3 -7 -15 -17 -45 -24 -28 -7 -51 -16 -51 -21 0 -8 51 -39 65 -39 3 0
5 5 5 10 0 6 -7 10 -15 10 -8 0 -15 4 -15 9 0 13 71 24 83 12 15 -15 -2 -100
-24 -119 -10 -9 -19 -22 -19 -29 0 -6 -11 -38 -25 -70 -25 -58 -26 -58 -68
-58 -23 1 -47 4 -53 8 -7 4 -14 62 -18 144 -4 76 -11 157 -15 180 -10 54 9 78
29 35 8 -17 14 -22 17 -14 3 7 -9 42 -26 76 -31 63 -31 63 -24 185 4 91 9 121
20 121 9 0 13 -17 14 -62 1 -35 4 -88 9 -118 6 -45 7 -34 9 68 1 100 4 128 19
147 17 22 17 21 23 -64 4 -48 16 -125 28 -170z m978 217 c-3 -7 -5 -2 -5 12 0
14 2 19 5 13 2 -7 2 -19 0 -25z m405 -35 c0 -27 -10 -116 -21 -198 -11 -83
-22 -168 -23 -189 -2 -24 -10 -43 -20 -50 -21 -13 -328 18 -368 37 -19 10 -26
22 -32 60 -3 27 -13 59 -22 72 -28 43 -114 56 -154 22 -8 -6 -24 -34 -36 -62
-35 -77 -37 -78 -203 -76 -79 1 -74 -5 -88 91 l-6 36 68 17 c93 22 274 30 417
17 178 -16 273 -44 366 -111 l45 -32 -35 37 c-57 60 -216 126 -304 126 -16 0
-26 3 -23 6 4 4 55 1 114 -6 115 -13 132 -21 221 -104 17 -16 32 -25 32 -19 0
6 -25 33 -55 60 l-55 49 9 73 c5 40 11 75 14 77 2 3 35 -16 73 -42 74 -51 69
-34 -9 27 l-47 38 27 20 c16 11 44 35 63 54 42 42 54 35 52 -30z m-1522 47 c9
-6 10 -10 3 -10 -6 0 -19 -3 -27 -6 -12 -5 -15 -2 -10 10 7 18 13 20 34 6z
m310 -38 c3 -2 -3 -8 -13 -13 -23 -13 -22 -54 3 -79 13 -13 33 -20 60 -20 30
0 40 -4 40 -16 0 -12 -9 -15 -43 -13 -24 2 -48 0 -54 -4 -16 -10 -52 98 -53
161 0 22 1 22 28 5 15 -9 29 -19 32 -21z m2080 -22 c0 -9 -7 -26 -16 -38 -8
-12 -14 -27 -12 -33 2 -6 12 5 23 25 23 42 27 43 71 15 32 -19 33 -22 28 -67
-4 -26 -16 -67 -27 -92 -12 -25 -23 -49 -25 -55 -3 -5 4 -2 16 9 25 22 52 96
52 143 0 35 5 39 30 23 11 -7 15 -29 15 -90 0 -44 3 -80 6 -80 3 0 11 -12 18
-26 10 -23 9 -32 -12 -63 -13 -20 -43 -49 -65 -65 l-41 -28 -34 27 -35 26 49
45 c50 47 100 132 98 168 0 13 -7 4 -16 -22 -19 -55 -98 -141 -160 -174 -94
-51 -162 -57 -210 -20 -22 17 -21 17 50 17 71 0 157 26 157 47 0 5 -14 1 -31
-8 -43 -22 -125 -29 -176 -15 -54 15 -55 27 -2 35 60 10 116 42 171 98 26 27
48 46 48 43 0 -4 -18 -32 -40 -64 -45 -64 -52 -85 -16 -52 25 23 80 127 91
171 l6 25 -20 -24 c-12 -12 -18 -28 -14 -35 3 -6 3 -8 -2 -4 -4 4 -31 -14 -60
-41 -71 -64 -118 -86 -183 -85 -40 0 -58 5 -73 21 -25 24 -17 47 13 38 11 -4
26 0 37 9 9 8 36 22 59 30 40 14 142 92 142 109 0 4 9 16 20 27 11 11 20 28
20 38 0 30 21 44 36 24 8 -9 14 -24 14 -32z m-2396 -72 c-3 -46 -8 -85 -10
-87 -2 -2 -4 35 -4 82 0 55 4 87 11 87 7 0 8 -26 3 -82z m636 4 c0 -36 3 -62
8 -58 4 4 7 18 8 29 0 12 1 39 2 61 l2 39 150 -5 c83 -3 153 -7 155 -10 3 -3
1 -36 -4 -74 l-8 -69 -3 55 c-2 58 -5 58 -15 -2 l-6 -38 -143 0 c-131 0 -146
-2 -167 -21 l-24 -21 25 8 c40 12 236 15 340 6 92 -9 89 -9 -85 -11 -177 -2
-208 -6 -295 -45 -13 -5 -15 1 -12 36 2 24 12 61 23 84 10 22 19 57 19 77 0
28 3 35 15 31 11 -5 15 -23 15 -72z m-1359 -14 c9 -34 19 -72 23 -83 l8 -20
-17 20 c-27 32 -52 87 -58 128 -10 64 25 29 44 -45z m1069 66 c0 -8 -4 -12
-10 -9 -5 3 -10 1 -10 -6 0 -7 -3 -10 -6 -6 -9 9 3 37 16 37 5 0 10 -7 10 -16z
m60 -3 c0 -14 -6 -19 -20 -18 -12 1 -20 8 -20 19 0 11 7 18 20 18 13 0 20 -7
20 -19z m-157 -36 c5 -28 4 -34 -3 -20 -8 19 -14 73 -6 64 2 -2 6 -22 9 -44z
m888 30 c226 -22 212 -17 204 -78 -11 -78 -18 -87 -60 -76 -19 6 -95 15 -168
22 l-132 12 0 68 c0 37 0 67 1 67 1 0 70 -7 155 -15z m739 -101 c20 -17 11
-209 -20 -400 -31 -188 -36 -208 -67 -244 -21 -26 -32 -31 -61 -28 -30 3 -37
8 -44 33 -5 18 -4 52 3 87 11 54 12 56 36 47 31 -11 43 -11 43 0 0 5 -14 12
-31 16 -25 6 -30 11 -25 28 3 12 6 32 6 45 0 18 5 22 33 22 l32 -1 -30 -16
c-18 -10 -25 -18 -17 -21 7 -2 25 4 40 15 15 10 38 23 52 30 28 13 28 13 -65
16 -39 2 -49 5 -46 17 3 8 5 31 6 50 0 19 7 54 14 77 13 38 15 41 37 31 l23
-11 -22 -18 c-25 -21 -19 -24 18 -7 33 15 32 23 -5 45 -17 10 -28 23 -26 30 3
6 8 28 12 47 8 45 20 53 45 30 10 -9 22 -15 25 -12 3 3 -7 15 -21 27 -24 18
-26 25 -20 60 6 39 7 40 33 28 15 -6 34 -16 42 -23z m-1591 -34 c0 -13 -1 -13
-8 0 -5 8 -12 26 -15 40 l-7 25 15 -25 c9 -14 15 -32 15 -40z m1740 -98 c18
-18 37 -32 42 -32 5 0 9 -9 9 -21 0 -11 11 -35 25 -53 14 -18 25 -38 25 -44 0
-6 24 -43 54 -83 l55 -72 -64 -37 c-123 -73 -250 -166 -337 -248 l-87 -83 -14
28 c-8 15 -18 38 -21 51 -6 19 -4 22 21 22 65 0 116 60 128 151 4 24 16 98 27
164 14 78 21 163 21 242 l0 123 41 -38 c23 -21 56 -53 75 -70z m605 29 c25
-37 62 -103 82 -145 35 -73 36 -79 24 -119 -8 -28 -31 -59 -72 -99 -33 -32
-56 -58 -50 -58 22 0 121 102 136 140 19 47 28 49 51 13 17 -26 17 -28 -5 -70
-51 -96 -170 -173 -266 -173 -53 0 -60 3 -93 38 -20 21 -59 55 -88 76 -54 41
-161 154 -182 193 -10 20 -9 22 6 16 10 -3 38 -25 63 -48 25 -24 61 -51 80
-61 47 -24 170 -25 224 -1 54 24 42 28 -29 10 -50 -13 -69 -14 -119 -3 l-58
12 32 19 c34 21 36 38 2 20 -32 -17 -74 -13 -112 10 l-35 22 58 19 58 19 35
-31 c19 -16 42 -30 52 -30 14 1 14 2 -3 12 -28 15 -65 50 -65 60 0 5 20 -5 44
-23 53 -37 77 -35 131 13 63 54 79 107 49 153 -11 16 -14 34 -9 55 4 16 8 30
10 30 2 0 24 -31 49 -69z m-1604 -41 c6 -10 10 -33 10 -50 0 -17 5 -41 11 -52
10 -19 9 -20 -12 -15 -13 4 -49 7 -81 7 -51 0 -56 2 -51 20 4 16 8 18 19 9 8
-6 30 -9 49 -7 19 2 35 0 35 -6 0 -5 3 -6 7 -2 10 10 4 78 -9 93 -14 18 -63
16 -82 -2 -8 -8 -20 -31 -27 -49 -7 -19 -22 -39 -33 -44 -20 -9 -20 -5 8 55
25 52 36 65 61 72 36 9 82 -4 95 -29z m-1010 -24 c0 -3 -4 -8 -10 -11 -5 -3
-10 -1 -10 4 0 6 5 11 10 11 6 0 10 -2 10 -4z m-23 -93 c-3 -10 -5 -2 -5 17 0
19 2 27 5 18 2 -10 2 -26 0 -35z m10 -100 c-2 -16 -4 -3 -4 27 0 30 2 43 4 28
2 -16 2 -40 0 -55z m3190 61 c-3 -3 -12 -4 -19 -1 -8 3 -5 6 6 6 11 1 17 -2
13 -5z m92 -31 c172 -70 170 -204 -4 -386 -57 -60 -189 -167 -206 -167 -4 0
-9 8 -11 17 -2 12 21 36 73 75 89 67 181 163 209 218 48 93 7 189 -105 249
-42 23 -17 20 44 -6z m-2854 -106 c20 -32 90 -67 133 -67 69 0 137 49 148 108
6 32 8 34 43 28 20 -3 74 -14 121 -25 l85 -20 -75 -2 -75 -2 69 -8 c38 -5 72
-12 75 -14 7 -8 -18 -228 -27 -236 -4 -4 -52 2 -107 11 -55 10 -101 17 -103
15 -1 -1 38 -19 88 -40 49 -21 95 -44 101 -52 8 -9 10 -39 6 -91 -9 -111 -9
-112 -72 -108 -46 2 -60 8 -93 38 -22 20 -76 62 -121 93 -45 31 -88 66 -96 78
-8 12 -34 36 -56 54 -23 18 -39 33 -36 33 14 0 160 -72 241 -119 92 -53 131
-64 54 -15 -23 16 -61 44 -83 64 -22 20 -99 67 -171 104 -105 55 -133 74 -141
97 -18 48 12 48 75 2 41 -31 41 -21 -2 31 -32 39 -33 44 -25 91 4 28 9 57 10
65 1 8 5 -8 9 -36 4 -28 15 -63 25 -77z m1148 41 c6 -60 5 -61 -16 -53 -18 7
-28 80 -13 95 18 18 23 10 29 -42z m1568 38 c119 -26 189 -76 189 -138 0 -16
-10 -48 -21 -71 -24 -46 -149 -174 -220 -224 l-46 -32 -49 96 c-27 52 -56 101
-66 107 -14 10 -16 18 -8 46 16 55 -38 190 -76 190 -7 0 -18 9 -24 20 -10 20
-8 20 122 20 76 0 162 -6 199 -14z m-1737 -43 c32 -62 63 -97 105 -120 41 -23
51 -43 21 -43 -54 0 -131 73 -169 163 -20 46 -20 47 -1 47 13 0 28 -16 44 -47z
m-210 -36 c19 -103 127 -185 229 -174 l53 5 18 -50 c15 -43 16 -53 4 -64 -8
-8 -72 -44 -143 -80 -83 -42 -117 -64 -95 -60 19 4 53 15 75 26 l40 19 -33
-30 c-19 -17 -32 -33 -29 -36 3 -3 27 15 54 40 43 40 133 95 133 82 0 -18 -40
-61 -79 -87 -42 -27 -41 -30 6 -11 38 15 -80 -117 -132 -149 -59 -36 -74 -58
-22 -33 24 12 16 1 -38 -49 -38 -36 -71 -63 -73 -62 -2 2 4 21 12 41 32 76 14
107 -74 130 -29 8 -53 15 -55 17 -2 2 1 25 6 51 23 124 49 335 49 397 0 56 3
70 15 70 8 0 15 5 15 10 0 6 -7 10 -15 10 -8 0 -15 5 -15 10 0 6 20 10 44 10
42 0 44 -2 50 -33z m1677 -13 c34 -76 35 -106 3 -164 -34 -62 -94 -116 -146
-132 -21 -6 -40 -9 -41 -7 -13 16 -67 111 -67 117 0 4 20 20 44 35 56 35 113
98 133 146 13 31 17 33 23 17 5 -14 9 -16 14 -7 4 6 5 18 2 26 -3 8 -1 15 5
15 6 0 19 -21 30 -46z m-2842 -137 c8 -11 9 -17 3 -17 -21 0 -32 38 -30 102
l1 63 6 -66 c3 -36 12 -73 20 -82z m246 123 c15 0 28 -42 16 -50 -4 -3 -11
-16 -15 -30 -3 -14 -15 -35 -25 -47 -18 -21 -22 -22 -51 -9 -18 7 -28 16 -23
19 6 4 21 34 33 67 16 44 27 59 37 56 8 -4 20 -6 28 -6z m1309 -33 c42 -45
103 -215 80 -224 -21 -8 -28 2 -52 80 -29 90 -59 134 -101 148 -25 8 -30 14
-20 20 28 18 62 9 93 -24z m764 -42 c20 -13 50 -40 65 -60 15 -19 34 -35 42
-35 8 0 15 -9 15 -20 0 -32 36 -95 70 -124 l32 -26 -41 -41 -40 -41 0 -95 c1
-52 -1 -96 -3 -99 -12 -11 -121 -24 -205 -24 -187 0 -343 53 -442 151 l-52 52
33 34 c50 52 199 176 270 224 81 56 201 128 211 129 4 0 24 -11 45 -25z m-903
-15 c8 -13 -45 -13 -65 0 -11 7 -6 10 22 10 20 0 40 -4 43 -10z m-985 -65 c72
-36 130 -67 130 -70 0 -3 -37 14 -82 37 -46 22 -111 51 -145 63 -34 12 -60 25
-56 29 11 11 21 7 153 -59z m1071 -8 c9 -27 26 -50 49 -65 41 -27 47 -37 25
-46 -29 -11 -54 13 -86 82 -17 37 -33 70 -35 74 -2 3 4 4 14 1 10 -2 24 -22
33 -46z m47 16 c5 -16 13 -36 17 -46 14 -33 -21 -8 -38 29 -21 42 -21 44 -3
44 8 0 19 -12 24 -27z m-514 -30 c-6 -59 -23 -168 -30 -206 l-6 -28 -30 40
c-16 23 -37 41 -45 41 -12 0 -14 7 -9 33 4 17 9 57 13 89 l6 56 46 10 c25 5
49 10 53 11 4 0 5 -20 2 -46z m-874 21 c22 -9 40 -19 40 -22 0 -3 -11 -22 -24
-41 -13 -20 -36 -55 -50 -79 l-27 -43 -36 31 c-42 37 -80 56 -91 45 -4 -4 -1
-10 6 -12 6 -3 9 -9 6 -15 -4 -6 2 -8 17 -3 23 7 23 6 -4 -20 -32 -31 -42 -27
-51 19 -6 30 -1 43 28 84 53 73 104 89 186 56z m180 -16 c99 -45 268 -253 258
-320 -3 -21 -5 -20 -25 15 -13 21 -23 47 -23 58 0 20 -85 119 -102 119 -6 0
-34 22 -64 49 -29 27 -73 57 -98 67 -25 11 -46 25 -46 33 0 16 33 9 100 -21z
m-360 8 c0 -2 -8 -10 -17 -17 -16 -13 -17 -12 -4 4 13 16 21 21 21 13z m2606
-96 c13 -13 14 -13 8 5 -3 11 5 4 19 -15 28 -40 26 -50 -9 -50 -38 0 -81 26
-109 67 -36 53 -33 67 18 79 l42 9 8 -40 c5 -22 15 -47 23 -55z m335 25 c17
-36 29 -68 26 -71 -3 -3 -18 18 -32 48 -15 29 -34 61 -43 71 -14 15 -14 17 1
17 9 0 28 -26 48 -65z m-2642 29 c2 -2 -16 -25 -41 -52 -25 -27 -50 -58 -57
-69 -7 -15 -17 -20 -31 -16 -26 7 -26 12 11 64 53 74 71 90 93 83 12 -4 23 -8
25 -10z m47 -22 c15 -9 -78 -112 -100 -112 -27 0 -18 25 27 74 44 47 53 51 73
38z m547 -2 c9 0 17 -7 17 -15 0 -19 -7 -18 -50 6 -28 16 -30 19 -10 15 14 -3
33 -6 43 -6z m-474 -54 c37 -38 35 -51 -16 -97 -46 -43 -64 -49 -101 -34 -17
8 -32 19 -32 25 0 29 82 140 104 140 7 0 27 -15 45 -34z m1305 -87 c26 -55 46
-103 42 -106 -10 -11 -63 18 -97 53 -24 25 -28 34 -17 34 27 0 32 21 10 42
-22 22 -47 16 -38 -11 3 -9 -8 0 -24 19 l-30 35 47 16 c27 9 50 17 53 17 3 1
27 -44 54 -99z m-179 47 c-11 -15 -72 -106 -119 -178 -17 -27 -35 -48 -39 -48
-19 0 -76 -53 -85 -80 -6 -16 -20 -33 -31 -40 -18 -9 -21 -8 -21 10 0 13 27
49 66 88 58 59 183 233 200 277 6 15 8 15 23 1 11 -11 13 -20 6 -30z m-1469
-14 c10 -16 4 -25 -42 -66 -51 -44 -54 -46 -54 -23 0 28 54 107 73 107 7 0 17
-8 23 -18z m2594 -32 c-10 -29 -10 -50 -3 -82 l11 -43 1 51 c1 64 9 72 30 31
9 -17 32 -41 52 -51 32 -17 42 -18 75 -8 59 18 137 82 151 122 l11 35 7 -30
c4 -16 9 -36 11 -44 9 -29 -17 -91 -51 -119 -80 -65 -241 -104 -289 -69 -10 8
-19 31 -22 57 -3 25 -10 69 -16 98 -11 49 -10 54 12 77 30 32 36 25 20 -25z
m-2150 -2 c16 -22 30 -45 30 -49 0 -18 -57 -69 -92 -84 -36 -14 -37 -14 -67
17 -17 17 -28 36 -24 41 3 6 15 -2 25 -16 26 -36 57 -34 103 6 35 30 37 35 25
57 -7 14 -22 35 -33 48 -11 12 -15 22 -9 22 7 0 25 -19 42 -42z m1144 -111 c4
-21 2 -46 -3 -55 -9 -16 -10 -15 -17 3 -10 26 -56 93 -88 127 -23 24 -25 30
-14 53 l12 26 52 -58 c36 -41 54 -69 58 -96z m-919 13 c3 -5 -2 -24 -10 -44
-8 -19 -15 -57 -16 -83 l-1 -48 -13 60 c-19 85 -30 110 -83 184 l-46 66 82
-64 c46 -35 85 -67 87 -71z m1865 96 c0 -33 -1 -34 -25 -23 -14 7 -23 18 -20
25 3 8 5 18 5 23 0 5 9 9 20 9 16 0 20 -7 20 -34z m-950 8 c0 -8 -4 -12 -10
-9 -5 3 -10 10 -10 16 0 5 5 9 10 9 6 0 10 -7 10 -16z m-1445 -25 c112 -57
128 -68 149 -106 14 -25 32 -41 53 -47 17 -5 36 -20 42 -33 15 -32 0 -29 -51
12 -100 80 -239 145 -310 145 l-41 0 19 21 c18 21 48 37 69 38 6 1 37 -13 70
-30z m273 2 c20 -27 20 -30 4 -44 -38 -33 -60 -39 -80 -20 -17 17 -17 19 12
56 16 20 32 37 36 37 3 0 16 -13 28 -29z m2111 -28 c16 -14 23 -34 28 -83 9
-88 39 -120 112 -120 27 0 61 4 74 9 l25 10 -22 -40 c-12 -22 -31 -42 -43 -45
-32 -8 -95 26 -113 62 -32 61 -62 104 -70 99 -5 -3 -6 -13 -3 -21 5 -14 3 -15
-15 -5 -15 8 -22 8 -22 1 0 -6 8 -14 17 -17 15 -6 15 -7 -3 -14 -43 -17 -56
-11 -53 24 2 17 0 52 -5 76 -7 40 -6 46 15 62 30 23 51 24 78 2z m-2642 -15
c-3 -8 -6 -5 -6 6 -1 11 2 17 5 13 3 -3 4 -12 1 -19z m1659 -85 c24 -39 24
-44 10 -64 l-15 -22 -11 28 c-6 16 -26 50 -44 75 -27 37 -32 50 -23 65 9 17
12 17 34 -11 13 -16 35 -48 49 -71z m-1371 23 c39 -18 97 -54 129 -80 33 -25
70 -46 82 -46 20 0 26 -9 38 -52 22 -79 40 -178 32 -185 -3 -3 -6 1 -6 11 0
21 -60 179 -66 173 -3 -2 7 -39 21 -82 17 -49 28 -110 32 -164 5 -86 5 -86
-30 -134 l-34 -48 -6 75 c-5 75 -29 142 -70 203 -12 18 -26 33 -30 33 -4 0 4
-16 18 -35 40 -51 65 -144 65 -233 -1 -80 -21 -140 -79 -234 -28 -46 -32 -47
-20 -6 5 18 9 53 10 78 l1 45 13 -40 c13 -39 13 -40 14 -9 1 17 -10 52 -24 79
-22 45 -23 49 -7 61 15 12 14 13 -13 14 -30 1 -95 49 -95 70 0 6 -6 10 -12 8
-22 -4 -58 22 -58 41 0 26 -10 32 -32 20 -15 -8 -39 -4 -102 16 -46 15 -93 25
-107 23 -20 -3 -16 -6 21 -16 167 -46 311 -126 369 -204 45 -61 38 -68 -13
-12 -70 79 -254 180 -369 204 -87 18 -142 2 -199 -58 -25 -26 -50 -56 -56 -67
-8 -14 -11 -15 -12 -5 0 19 37 81 59 97 35 27 102 53 136 53 19 0 35 5 35 10
0 6 -12 10 -26 10 -19 0 -25 4 -20 15 8 21 -10 19 -26 -3 -11 -14 -59 -42 -73
-42 -2 0 5 15 16 34 17 30 29 37 77 47 68 14 131 7 248 -26 159 -46 252 -103
291 -179 9 -17 18 -26 20 -19 5 15 -39 106 -74 152 -24 31 -106 91 -126 91 -5
0 13 -15 39 -32 46 -31 124 -122 124 -143 0 -5 -5 -2 -11 8 -49 85 -400 200
-513 169 l-37 -11 31 42 c16 22 30 46 30 52 0 5 11 22 25 37 16 18 25 39 25
61 0 37 29 80 101 153 l40 40 67 -13 c37 -8 99 -29 137 -47z m1303 -25 c17
-25 36 -58 41 -73 9 -24 7 -30 -20 -52 -17 -15 -35 -26 -41 -26 -17 0 -119
108 -108 115 5 3 22 28 37 54 31 57 42 55 91 -18z m1494 24 c-6 -20 -11 -25
-16 -17 -11 18 2 68 14 56 5 -5 6 -23 2 -39z m-2457 -8 c13 -24 34 -70 45
-103 41 -118 35 -304 -11 -349 l-21 -20 12 25 c8 16 -3 9 -29 -20 l-40 -45 11
40 c25 95 -20 315 -89 436 -2 3 12 13 32 22 19 9 40 26 47 37 7 11 14 20 15
20 1 0 14 -19 28 -43z m402 7 c2 -7 -11 -7 -41 0 -34 8 -42 13 -35 23 9 10 17
10 42 0 17 -7 32 -18 34 -23z m738 -71 c-6 -34 -54 -88 -187 -212 -65 -60 -82
-71 -112 -71 -43 0 -49 9 -27 36 12 16 25 20 47 17 26 -4 36 1 67 38 21 23 37
48 37 54 0 6 29 41 65 77 60 61 65 71 65 110 l0 43 25 -30 c19 -23 24 -37 20
-62z m106 36 c52 -48 142 -93 230 -114 87 -21 261 -30 329 -17 30 6 56 9 58 8
1 -2 -9 -15 -22 -31 l-24 -27 -133 5 c-77 2 -160 12 -194 21 -82 22 -231 97
-284 142 -38 33 -41 39 -25 45 11 4 19 8 20 8 0 1 20 -17 45 -40z m-882 15
c205 -32 227 -43 199 -111 -9 -21 -23 -65 -33 -98 -32 -111 -85 -223 -108
-229 -36 -10 -154 -7 -227 5 -68 12 -70 13 -76 45 -3 18 -3 37 0 42 9 15 46
253 46 298 0 71 19 75 199 48z m2040 -64 c-23 -53 -18 -79 8 -45 15 19 15 18
9 -14 -7 -36 -31 -81 -44 -81 -4 0 -7 38 -6 85 1 76 4 88 25 111 33 35 37 11
8 -56z m-2299 -27 c14 -65 17 -102 12 -134 -8 -42 -9 -43 -15 -14 -3 17 -8 62
-12 100 -3 39 -8 88 -11 110 -11 69 5 32 26 -62z m-40 60 c-1 -24 -2 -26 -11
-10 -5 9 -7 22 -4 27 10 17 15 11 15 -17z m2273 -50 c-17 -43 -28 -53 -61 -53
-22 0 -22 1 -7 30 13 26 56 58 77 60 4 0 0 -17 -9 -37z m-1552 -24 c-11 -10
-21 -21 -21 -26 0 -5 22 -30 49 -57 l49 -48 23 25 c13 13 32 27 42 30 28 10
20 -16 -16 -51 -29 -28 -37 -31 -59 -23 -32 12 -108 100 -108 125 0 11 12 33
28 49 23 24 28 26 31 11 2 -10 -6 -26 -18 -35z m110 -73 c-19 -23 -41 -20 -72
10 -27 26 -27 28 -13 57 l16 30 41 -41 c34 -35 39 -43 28 -56z m1453 42 c-9
-47 -36 -72 -68 -64 -32 8 -37 46 -7 46 11 0 33 11 48 25 15 13 29 25 30 25 1
0 0 -15 -3 -32z m-1712 -29 c-3 -22 -16 -38 -43 -56 -58 -38 -60 -20 -4 37 27
28 50 50 50 50 1 0 0 -14 -3 -31z m131 -147 c-61 -57 -116 -94 -208 -141 l-74
-38 -6 28 c-4 19 3 53 22 103 26 68 32 77 80 105 28 17 70 47 93 66 l41 34 49
-57 49 -57 -46 -43z m321 87 c-12 -61 -12 -73 1 -86 19 -18 20 -62 1 -69 -10
-4 -12 -18 -8 -50 8 -75 -52 -462 -83 -531 -15 -34 -39 -46 -29 -15 4 13 1 12
-14 -5 -24 -28 -62 -43 -106 -43 -25 0 -35 6 -44 25 -14 30 -23 31 -47 5 -10
-11 -13 -20 -7 -20 6 0 14 5 17 10 10 16 25 12 25 -6 0 -15 -13 -16 -122 -11
-112 5 -123 7 -140 29 -15 20 -18 21 -18 5 0 -13 -5 -17 -17 -13 -10 3 -30 8
-44 11 -16 4 -40 25 -59 51 -37 53 -53 52 -20 -1 l22 -36 -37 18 -37 18 4 106
3 107 58 -50 c31 -28 60 -55 64 -62 7 -12 -17 5 -54 38 -13 11 -23 15 -23 9 0
-15 57 -62 89 -74 13 -6 31 -7 39 -4 20 7 -26 56 -125 132 -40 31 -73 61 -73
67 1 23 27 59 34 47 11 -17 136 -78 219 -106 76 -25 265 -60 275 -50 3 3 0 5
-7 5 -7 0 -10 4 -7 9 4 5 -51 28 -121 52 -71 23 -157 54 -192 69 l-64 28 109
-5 c127 -6 306 9 382 32 62 19 67 29 7 14 -58 -15 -425 -24 -425 -11 0 6 -2
17 -6 25 -4 11 7 16 46 20 106 13 430 119 430 141 0 3 -24 -4 -52 -15 -113
-46 -421 -119 -436 -104 -4 4 35 16 232 70 71 19 132 38 135 41 3 3 -5 3 -19
0 -14 -3 -56 -12 -95 -20 -38 -8 -83 -17 -100 -21 -27 -6 -25 -4 15 22 25 17
62 44 82 62 22 19 39 27 43 21 3 -5 23 -10 44 -10 45 0 83 25 191 128 41 39
75 71 76 72 0 0 -5 -32 -12 -71z m956 39 c0 -19 -2 -20 -10 -8 -13 19 -13 30
0 30 6 0 10 -10 10 -22z m185 -11 c-4 -15 -12 -31 -19 -36 -19 -16 -78 5 -107
36 -19 21 -20 25 -6 20 46 -17 93 -18 112 -4 25 19 28 16 20 -16z m-174 -51
c22 -15 22 -16 3 -16 -11 0 -37 18 -58 39 -33 33 -36 40 -20 43 12 2 25 -6 36
-23 9 -15 27 -34 39 -43z m57 20 c12 -11 38 -22 57 -25 26 -5 32 -9 26 -20
-19 -30 -124 27 -129 69 -2 21 -1 23 10 10 7 -8 23 -24 36 -34z m207 -6 c-12
-23 -22 -30 -46 -30 -26 0 -30 3 -27 23 2 16 9 21 26 19 13 -1 31 2 40 8 24
14 24 13 7 -20z m-2218 -72 c-3 -7 -5 -2 -5 12 0 14 2 19 5 13 2 -7 2 -19 0
-25z m-4 -134 c-5 -13 -119 -115 -147 -131 -12 -7 -29 -12 -39 -13 -29 0 -3
37 41 59 20 10 60 43 87 72 37 40 52 50 56 39 3 -8 4 -20 2 -26z m-641 -41
c177 -83 268 -159 268 -222 0 -21 -4 -18 -30 21 -34 52 -72 89 -52 52 6 -11
17 -26 25 -32 8 -7 22 -30 32 -52 16 -36 17 -45 5 -83 -8 -23 -15 -45 -16 -48
-2 -3 -43 3 -91 13 -143 29 -160 22 -40 -19 90 -30 105 -38 95 -50 -10 -12 -7
-13 15 -8 26 7 27 5 27 -32 0 -33 -6 -43 -32 -64 -18 -13 -44 -30 -58 -37 -23
-11 -21 -12 19 -7 l44 6 -6 -83 c-3 -46 -10 -99 -16 -119 -10 -33 -15 -37 -69
-49 -97 -22 -240 -20 -377 5 -49 9 -6 -13 50 -25 72 -16 270 -14 335 3 61 17
70 13 70 -38 0 -40 -9 -51 -54 -70 -78 -33 -395 -15 -497 28 -33 13 -35 18
-52 98 -9 46 -17 112 -17 146 l0 62 34 -20 c33 -19 96 -42 96 -34 0 2 -19 13
-42 23 -24 11 -54 32 -68 48 -15 18 -17 22 -5 12 34 -28 124 -58 189 -63 l61
-5 -65 15 c-84 20 -183 68 -205 101 -26 40 -5 50 40 19 69 -46 205 -76 345
-74 l85 1 -110 14 c-171 20 -302 60 -336 100 -10 13 -8 13 17 4 123 -47 397
-69 517 -42 75 18 69 25 -9 11 -132 -25 -419 12 -512 67 -15 8 -18 12 -7 9 95
-31 177 -45 259 -44 l91 2 -86 7 c-100 9 -210 35 -221 53 -23 37 6 180 42 202
7 4 35 8 64 8 l51 -1 -48 10 c-38 8 -52 7 -72 -6 -36 -24 -57 -72 -63 -143 -2
-35 -8 -63 -13 -63 -7 0 -22 18 -25 30 0 3 -4 13 -8 23 -5 9 -4 23 2 30 5 6
13 32 17 57 4 25 15 75 26 111 24 83 43 93 168 91 125 -2 272 -43 351 -99 23
-16 24 -16 11 -1 -38 49 -155 92 -304 113 -64 9 -118 11 -145 6 -42 -8 -42 -8
-29 13 8 11 32 31 53 44 33 20 50 22 114 19 62 -3 90 -10 162 -44z m1009 -15
c6 -24 18 -56 26 -71 l14 -28 -33 5 c-18 3 -55 8 -81 11 -50 7 -55 12 -71 78
-6 26 -5 27 36 28 24 0 52 4 63 9 32 14 34 12 46 -32z m-267 12 c7 0 18 -17
25 -37 8 -21 22 -50 33 -65 14 -21 17 -36 12 -63 -3 -19 -2 -35 3 -35 20 0 34
-69 27 -134 l-7 -67 -110 -115 c-114 -120 -228 -214 -332 -277 -59 -35 -149
-77 -165 -77 -17 0 -20 70 -5 131 8 35 15 95 15 132 0 45 5 76 16 93 13 18 15
36 10 75 -6 46 -5 53 24 85 16 19 30 39 30 45 0 6 4 8 8 5 5 -3 27 35 50 84
36 81 43 90 67 90 34 0 125 51 185 103 37 32 50 38 74 33 15 -3 34 -6 40 -6z
m112 -34 c8 -34 7 -43 -3 -39 -7 3 -15 15 -18 26 -4 12 -9 30 -11 40 -3 10 0
17 8 17 8 0 18 -19 24 -44z m194 -150 c47 -20 122 -45 168 -57 45 -12 80 -24
78 -26 -10 -10 -205 51 -279 87 -94 46 -87 45 33 -4z m287 -92 c-3 -3 -12 -4
-19 -1 -8 3 -5 6 6 6 11 1 17 -2 13 -5z m-1793 -182 c-9 -14 -14 -40 -13 -63
3 -38 1 -41 -36 -58 -54 -24 -95 -33 -95 -22 0 5 5 13 10 16 6 3 10 27 10 52
0 58 28 105 83 138 l42 25 7 -33 c4 -22 2 -40 -8 -55z m1551 -107 c131 -30
313 -44 355 -27 20 9 1 11 -85 13 l-110 2 105 7 c58 4 117 12 132 18 l27 11
-13 -32 c-8 -18 -19 -54 -25 -81 -6 -26 -30 -92 -53 -145 -23 -56 -41 -112
-41 -134 0 -27 -6 -42 -21 -52 -32 -23 -121 -18 -241 15 -128 34 -150 37 -80
9 83 -34 215 -61 273 -57 28 3 52 2 52 -1 0 -3 -11 -21 -25 -42 -35 -49 -131
-97 -212 -105 -35 -4 -63 -11 -63 -17 0 -10 98 -1 139 14 l26 9 -25 -20 c-14
-11 -29 -20 -34 -20 -5 0 -7 -3 -4 -6 9 -8 48 14 81 44 44 42 30 11 -23 -48
-27 -30 -47 -57 -44 -59 2 -3 29 20 59 49 30 30 55 50 54 45 0 -6 -19 -46 -42
-90 -51 -96 -66 -103 -207 -105 -64 -1 -87 -5 -70 -10 42 -13 155 -11 199 5
l41 14 -21 -42 c-12 -23 -35 -58 -52 -79 -16 -20 -30 -47 -31 -59 0 -12 -13
-29 -27 -38 -14 -9 -47 -30 -73 -48 -27 -18 -77 -42 -112 -55 -35 -13 -64 -27
-64 -31 0 -13 59 2 123 32 31 15 57 26 57 23 0 -2 -10 -18 -22 -35 -12 -16
-22 -40 -23 -51 -2 -30 -77 -47 -193 -44 -90 3 -119 -5 -64 -18 39 -10 46 -15
31 -25 -24 -15 34 -10 81 6 81 29 86 17 27 -62 -40 -53 -86 -77 -130 -67 -50
10 -138 58 -211 114 -80 61 -88 50 -11 -17 71 -61 136 -99 203 -119 65 -19 64
-26 -1 -13 -97 18 -199 80 -241 148 -20 31 -23 45 -17 73 14 59 20 62 50 21
33 -46 88 -89 139 -109 23 -9 30 -9 18 -1 -103 69 -151 123 -162 185 -8 39 6
68 29 64 9 -1 18 2 22 8 4 6 21 2 45 -10 55 -28 154 -50 220 -49 50 1 47 3
-40 16 -59 8 -116 24 -150 41 -65 32 -81 57 -23 36 82 -29 255 -12 367 36 72
31 51 33 -29 3 -60 -22 -87 -26 -185 -27 -63 -1 -127 2 -142 6 l-26 8 23 72
c13 40 34 99 47 130 l25 58 14 -26 c21 -40 107 -113 171 -145 32 -16 58 -26
58 -22 0 5 -19 16 -41 27 -52 24 -162 126 -182 169 -14 28 -14 42 -2 109 7 42
16 82 20 88 4 6 25 -15 49 -47 40 -55 97 -107 159 -147 46 -29 41 -12 -7 22
-63 46 -130 150 -150 236 -6 26 -3 24 32 -20 21 -27 63 -70 93 -94 52 -43 51
-41 -23 40 -43 46 -76 86 -74 87 2 2 19 -5 38 -16 43 -26 247 -103 261 -98 5
1 -40 22 -101 46 -61 24 -134 57 -163 73 -48 28 -51 31 -44 61 26 125 32 182
22 210 -8 25 -7 32 10 46 15 12 22 33 27 80 3 35 8 66 10 68 2 2 19 -5 38 -17
80 -47 406 -145 424 -127 3 3 -21 11 -53 17 -118 25 -370 120 -386 147 -3 5
17 2 46 -8 29 -9 106 -29 172 -44z m-1542 -132 c3 -60 9 -120 13 -135 8 -35
-10 -37 -67 -7 -23 11 -38 16 -34 10 9 -15 80 -51 100 -51 8 0 15 -5 15 -11 0
-20 -83 15 -112 47 -25 28 -35 61 -42 139 l-7 70 58 26 c32 14 61 25 64 23 4
-2 9 -52 12 -111z m887 -139 c0 -6 -171 -87 -207 -98 -42 -13 -14 22 30 38 23
8 71 26 107 40 76 29 70 27 70 20z m1035 -66 c28 -61 31 -117 11 -191 -8 -29
-17 -64 -20 -79 -10 -43 -30 -33 -65 31 -25 47 -29 61 -18 68 17 10 37 80 37
129 0 62 14 71 35 24 10 -22 20 -38 22 -36 3 2 -5 26 -16 51 -23 51 -24 55
-16 55 3 0 17 -24 30 -52z m-2003 -43 c31 -8 68 -16 82 -17 26 -2 46 -28 22
-28 -39 0 -276 81 -276 95 0 2 26 -5 58 -16 31 -11 82 -26 114 -34z m339 -16
c112 -14 283 -6 333 15 29 12 36 12 36 2 0 -22 -96 -56 -188 -67 -101 -11
-117 -19 -41 -19 69 0 165 17 201 36 l28 15 -6 -58 c-4 -33 -13 -63 -22 -70
-8 -7 -40 -17 -71 -24 -31 -7 -50 -14 -44 -16 7 -3 36 0 64 6 29 6 54 9 57 6
3 -3 1 -35 -4 -72 -8 -61 -12 -69 -41 -86 -18 -10 -75 -24 -130 -32 -81 -11
-89 -13 -46 -14 60 -1 146 15 186 35 15 8 27 13 28 12 0 -2 6 -42 13 -90 l12
-87 -30 -11 c-70 -24 -153 -23 -306 6 -14 2 0 -5 30 -17 62 -24 223 -30 273
-10 25 10 28 9 25 -6 -4 -23 -94 -68 -178 -89 -46 -12 -88 -15 -145 -11 -44 3
-73 2 -65 -3 25 -13 157 -40 199 -40 52 0 138 18 175 37 l29 15 -6 -38 c-4
-21 -12 -44 -19 -51 -22 -21 -126 -35 -234 -31 -84 3 -108 8 -150 29 -31 17
-47 31 -44 40 2 8 4 29 4 47 0 28 3 32 26 32 43 0 43 12 1 49 -33 29 -41 45
-47 83 l-6 47 43 -22 c39 -20 59 -22 174 -21 72 1 142 6 157 10 19 6 -20 9
-115 9 -165 0 -225 15 -288 72 -39 35 -45 55 -33 101 5 18 12 22 28 18 58 -16
67 -14 25 5 -43 19 -47 24 -53 66 -12 87 -11 88 37 50 23 -19 65 -46 92 -60
55 -27 175 -77 184 -76 3 0 -39 23 -95 52 -173 89 -240 153 -251 238 l-6 38
55 -19 c31 -11 98 -24 149 -31z m981 -166 c6 -7 8 -13 5 -13 -14 0 -57 77 -56
100 0 19 5 13 20 -25 11 -27 25 -55 31 -62z m603 -36 c14 -28 25 -54 25 -57 0
-3 -20 -34 -45 -68 -42 -58 -48 -62 -83 -61 l-37 1 38 10 c45 12 49 26 6 20
-29 -4 -31 -3 -24 19 4 13 16 42 27 63 11 22 27 61 34 88 8 27 19 46 25 42 5
-3 21 -29 34 -57z m-1650 -377 c3 -5 1 -10 -4 -10 -6 0 -11 5 -11 10 0 6 2 10
4 10 3 0 8 -4 11 -10z m435 -24 c0 -36 -63 -58 -180 -62 -76 -2 -85 -1 -44 5
61 10 136 35 184 61 19 11 36 19 38 20 1 0 2 -11 2 -24z m-335 -178 c29 -6 97
-8 161 -5 l112 5 10 -31 11 -32 -2 38 c-2 30 0 37 12 35 11 -2 17 -16 18 -43
2 -22 8 -67 14 -99 l11 -59 -47 -91 c-35 -69 -49 -112 -60 -178 -16 -100 -24
-119 -73 -170 -48 -50 -115 -72 -222 -73 -74 0 -93 4 -143 28 -61 30 -100 76
-112 132 l-7 30 20 -30 c52 -83 124 -116 247 -117 101 0 142 12 197 61 44 38
53 59 77 184 12 58 32 120 50 155 28 52 28 54 6 27 -32 -39 -60 -112 -74 -200
-25 -150 -87 -200 -246 -200 -72 1 -100 5 -140 23 -54 25 -82 46 -97 77 -8 16
-5 15 18 -6 16 -15 44 -34 62 -44 39 -19 132 -36 132 -24 0 5 -17 9 -37 9 -52
1 -112 30 -151 74 -27 31 -32 44 -32 89 0 74 13 110 58 164 48 57 141 219 144
248 0 11 1 26 1 33 -1 8 5 11 15 7 10 -3 39 -11 67 -17z m575 -73 c0 -3 -7
-17 -16 -30 -9 -14 -12 -25 -6 -25 5 0 12 7 16 15 8 23 19 18 44 -21 13 -19
49 -52 82 -73 53 -34 57 -40 43 -54 -21 -20 -32 -87 -23 -134 7 -37 8 -36 9
17 2 55 29 127 47 123 7 -2 48 -16 81 -28 2 -1 -6 -19 -17 -40 -16 -32 -20
-58 -19 -140 0 -55 6 -131 13 -170 13 -69 13 -71 -17 -127 -16 -31 -39 -65
-50 -77 -27 -25 -90 -39 -139 -31 -46 8 -50 -4 -7 -19 44 -15 74 -14 112 5 18
9 27 11 21 4 -24 -24 -83 -37 -141 -29 -74 10 -129 50 -166 120 -30 57 -31 74
-8 194 5 28 10 113 10 189 1 77 3 137 6 134 3 -3 9 -25 14 -49 8 -42 9 -40 10
31 1 77 19 131 62 191 18 26 39 38 39 24z m385 -165 c-3 -5 -12 -10 -18 -10
-7 0 -6 4 3 10 19 12 23 12 15 0z"/>
<path d="M4941 6129 c-24 -5 -45 -10 -47 -11 -1 -2 86 -3 194 -3 161 0 208 -3
256 -18 32 -10 60 -16 63 -13 8 7 -94 34 -172 46 -83 11 -232 11 -294 -1z"/>
<path d="M4530 5850 c-19 -19 -20 -24 -7 -43 17 -27 43 -33 63 -16 20 17 14
48 -13 66 -19 13 -24 12 -43 -7z m50 -31 c0 -12 -7 -19 -19 -19 -22 0 -34 23
-19 38 15 15 38 3 38 -19z"/>
<path d="M4533 5753 c-18 -7 -16 -52 3 -60 23 -9 51 23 38 44 -12 19 -23 24
-41 16z"/>
<path d="M5706 5767 c-38 -28 2 -96 42 -71 23 15 22 54 -4 70 -17 12 -23 12
-38 1z m44 -38 c0 -20 -24 -26 -35 -9 -4 6 -4 17 -1 25 7 20 36 7 36 -16z"/>
<path d="M5707 5654 c-12 -12 -8 -41 8 -54 20 -17 47 5 43 34 -3 21 -37 34
-51 20z"/>
<path d="M5630 5320 c0 -5 4 -10 9 -10 6 0 13 5 16 10 3 6 -1 10 -9 10 -9 0
-16 -4 -16 -10z"/>
<path d="M5595 5300 c-3 -5 1 -10 9 -10 9 0 16 5 16 10 0 6 -4 10 -9 10 -6 0
-13 -4 -16 -10z"/>
<path d="M5380 5210 c-12 -7 -8 -10 15 -10 17 0 37 5 45 10 12 7 8 10 -15 10
-16 0 -37 -5 -45 -10z"/>
<path d="M5310 5200 c0 -5 9 -10 20 -10 11 0 20 5 20 10 0 6 -9 10 -20 10 -11
0 -20 -4 -20 -10z"/>
<path d="M5275 5190 c3 -5 8 -10 11 -10 2 0 4 5 4 10 0 6 -5 10 -11 10 -5 0
-7 -4 -4 -10z"/>
<path d="M5370 5951 c0 -11 31 -24 39 -16 3 3 -1 10 -9 15 -19 12 -30 12 -30
1z"/>
<path d="M5425 5920 c3 -5 11 -10 16 -10 6 0 7 5 4 10 -3 6 -11 10 -16 10 -6
0 -7 -4 -4 -10z"/>
<path d="M3227 5723 c-12 -11 -7 -57 9 -83 l15 -25 -6 25 c-17 65 -17 72 -4
81 8 5 9 9 3 9 -6 0 -14 -3 -17 -7z"/>
<path d="M4440 5444 c0 -8 5 -12 10 -9 6 3 10 10 10 16 0 5 -4 9 -10 9 -5 0
-10 -7 -10 -16z"/>
<path d="M4430 5410 c0 -5 5 -10 10 -10 6 0 10 5 10 10 0 6 -4 10 -10 10 -5 0
-10 -4 -10 -10z"/>
<path d="M4825 5225 c17 -7 32 -11 35 -9 7 8 -24 24 -45 23 -15 0 -13 -4 10
-14z"/>
<path d="M6070 4940 c0 -5 5 -10 10 -10 6 0 10 5 10 10 0 6 -4 10 -10 10 -5 0
-10 -4 -10 -10z"/>
<path d="M3695 5150 c-10 -11 -15 -20 -11 -20 4 0 16 9 28 20 12 11 17 20 11
20 -5 0 -18 -9 -28 -20z"/>
<path d="M4577 5103 c-12 -11 -8 -23 8 -23 8 0 15 7 15 15 0 16 -12 20 -23 8z"/>
<path d="M5670 5100 c0 -5 7 -10 15 -10 8 0 15 5 15 10 0 6 -7 10 -15 10 -8 0
-15 -4 -15 -10z"/>
<path d="M4417 5004 c-4 -4 -7 -14 -7 -23 0 -11 3 -12 11 -4 6 6 10 16 7 23
-2 6 -7 8 -11 4z"/>
<path d="M4255 4921 c-14 -28 -21 -52 -17 -55 12 -7 92 6 92 15 0 18 -33 89
-41 89 -5 0 -20 -22 -34 -49z m42 -1 c-3 -11 -1 -18 4 -14 5 3 9 0 9 -5 0 -6
-9 -11 -20 -11 -23 0 -24 4 -10 31 14 25 24 24 17 -1z"/>
<path d="M4401 4924 c-18 -74 -21 -99 -11 -114 7 -11 10 -5 10 25 0 22 5 58
10 80 12 51 4 59 -9 9z"/>
<path d="M4386 4781 c-4 -7 -5 -15 -2 -18 9 -9 19 4 14 18 -4 11 -6 11 -12 0z"/>
<path d="M4825 4840 c-3 -5 -1 -10 4 -10 6 0 11 5 11 10 0 6 -2 10 -4 10 -3 0
-8 -4 -11 -10z"/>
<path d="M4856 4795 c-3 -8 -1 -15 3 -15 5 0 11 7 15 15 3 8 1 15 -3 15 -5 0
-11 -7 -15 -15z"/>
<path d="M4716 4778 c-22 -32 -21 -35 19 -40 40 -5 43 3 16 38 l-19 25 -16
-23z"/>
<path d="M4912 4758 c-17 -17 -15 -29 3 -22 11 5 13 2 9 -10 -3 -9 -1 -16 5
-16 13 0 14 29 3 47 -6 10 -11 10 -20 1z"/>
<path d="M4601 4669 c-10 -29 -15 -67 -8 -70 1 -1 66 -4 144 -8 l141 -6 4 48
c4 57 12 53 -153 62 l-117 6 -11 -32z m240 1 c16 0 29 -5 29 -11 0 -14 -123
-6 -160 10 -20 9 -13 11 39 6 35 -3 77 -5 92 -5z m19 -50 c0 -24 2 -24 -85 0
l-70 19 78 0 c71 1 77 -1 77 -19z"/>
<path d="M3476 4945 c-9 -26 -7 -37 7 -32 6 2 20 0 30 -5 25 -13 21 5 -7 31
-21 19 -24 20 -30 6z"/>
<path d="M3586 4944 c-9 -24 -7 -28 8 -15 11 10 17 8 25 -6 8 -15 13 -16 30
-5 17 10 21 10 22 0 1 -7 4 -2 8 12 10 33 5 37 -20 14 -19 -17 -21 -18 -30 -1
-12 21 -35 22 -43 1z"/>
<path d="M5510 4878 c0 -13 5 -30 10 -38 7 -12 10 -8 10 15 0 22 3 26 12 17 7
-7 17 -12 23 -12 12 1 -33 40 -46 40 -5 0 -9 -10 -9 -22z"/>
<path d="M5470 4846 c0 -8 5 -18 10 -21 6 -3 10 3 10 14 0 12 -4 21 -10 21 -5
0 -10 -6 -10 -14z"/>
<path d="M5330 4766 c0 -8 5 -18 10 -21 6 -3 10 1 10 9 0 8 -4 18 -10 21 -5 3
-10 -1 -10 -9z"/>
<path d="M5462 4768 c-12 -6 -32 -27 -43 -45 -17 -28 -20 -44 -16 -84 5 -41
13 -56 52 -94 25 -25 45 -41 45 -35 0 5 12 10 28 10 33 0 81 30 98 62 18 32
17 93 -2 129 -9 18 -32 38 -57 50 -47 21 -72 23 -105 7z m124 -52 c45 -45 47
-95 5 -137 -34 -33 -74 -38 -111 -12 -39 27 -49 45 -50 89 0 94 88 128 156 60z"/>
<path d="M5470 4710 c-45 -45 -3 -130 65 -130 27 0 65 46 65 79 0 59 -87 94
-130 51z m97 -20 c23 -21 21 -62 -2 -54 -7 3 -11 14 -8 25 6 23 -21 36 -42 19
-8 -6 -22 -10 -31 -8 -17 3 -17 4 0 21 23 23 57 22 83 -3z"/>
<path d="M3230 4940 c0 -5 10 -10 23 -10 18 0 19 2 7 10 -19 13 -30 13 -30 0z"/>
<path d="M4127 4671 c3 -12 10 -21 15 -21 13 0 6 32 -9 37 -7 3 -9 -3 -6 -16z"/>
<path d="M4150 4620 c0 -5 5 -10 10 -10 6 0 10 5 10 10 0 6 -4 10 -10 10 -5 0
-10 -4 -10 -10z"/>
<path d="M6190 4752 c0 -12 19 -26 26 -19 2 2 -2 10 -11 17 -9 8 -15 8 -15 2z"/>
<path d="M6022 4768 c-33 -33 8 -115 46 -92 20 13 27 38 16 62 -4 9 -8 22 -8
27 -1 15 -40 17 -54 3z"/>
<path d="M3860 4429 c0 -5 5 -7 10 -4 6 3 10 8 10 11 0 2 -4 4 -10 4 -5 0 -10
-5 -10 -11z"/>
<path d="M4020 4430 c0 -5 5 -10 10 -10 6 0 10 5 10 10 0 6 -4 10 -10 10 -5 0
-10 -4 -10 -10z"/>
<path d="M3756 4153 c-32 -35 -64 -62 -70 -60 -6 2 -29 -2 -51 -9 -38 -12 -39
-13 -10 -14 l30 -1 -25 -14 c-23 -13 -23 -14 -4 -15 34 0 110 55 154 114 24
31 41 58 39 60 -2 2 -30 -25 -63 -61z"/>
<path d="M3588 4103 c6 -2 18 -2 25 0 6 3 1 5 -13 5 -14 0 -19 -2 -12 -5z"/>
<path d="M6337 4282 c-41 -42 -48 -58 -18 -42 21 11 66 68 59 75 -2 3 -21 -12
-41 -33z"/>
<path d="M6210 4186 c0 -14 5 -28 10 -31 6 -3 10 1 10 11 0 15 2 15 26 -1 39
-25 40 -11 1 19 -42 32 -47 32 -47 2z"/>
<path d="M5090 4460 c0 -5 23 -10 50 -10 28 0 50 5 50 10 0 6 -22 10 -50 10
-27 0 -50 -4 -50 -10z"/>
<path d="M4948 4443 c-23 -6 -26 -98 -4 -106 8 -3 61 -9 118 -13 105 -7 105
-6 111 17 4 13 7 38 7 56 0 29 -4 33 -32 37 -55 9 -182 15 -200 9z"/>
<path d="M5683 4294 c-8 -21 13 -42 28 -27 13 13 5 43 -11 43 -6 0 -13 -7 -17
-16z"/>
<path d="M5680 4090 c0 -19 11 -26 23 -14 8 8 -3 34 -14 34 -5 0 -9 -9 -9 -20z"/>
<path d="M5650 3931 c-7 -13 -7 -22 0 -26 13 -8 30 3 30 20 0 23 -18 27 -30 6z"/>
<path d="M4175 4040 c-3 -5 -1 -10 4 -10 6 0 11 5 11 10 0 6 -2 10 -4 10 -3 0
-8 -4 -11 -10z"/>
<path d="M4190 3990 c0 -5 5 -10 10 -10 6 0 10 5 10 10 0 6 -4 10 -10 10 -5 0
-10 -4 -10 -10z"/>
<path d="M4219 3766 l23 -24 -21 -7 c-12 -3 -21 -10 -21 -14 0 -13 42 -63 48
-57 3 3 -3 15 -13 27 -19 20 -15 29 20 42 11 5 -33 57 -48 57 -6 0 0 -11 12
-24z"/>
<path d="M6535 4220 c3 -5 11 -10 16 -10 6 0 7 5 4 10 -3 6 -11 10 -16 10 -6
0 -7 -4 -4 -10z"/>
<path d="M5376 4178 c-10 -39 -7 -68 8 -68 14 0 18 8 30 63 5 22 3 27 -13 27
-11 0 -21 -9 -25 -22z"/>
<path d="M6765 3920 c3 -5 8 -10 11 -10 2 0 4 5 4 10 0 6 -5 10 -11 10 -5 0
-7 -4 -4 -10z"/>
<path d="M6780 3889 c0 -5 5 -7 10 -4 6 3 10 8 10 11 0 2 -4 4 -10 4 -5 0 -10
-5 -10 -11z"/>
<path d="M6781 3816 c-29 -46 -100 -110 -152 -136 -33 -18 -55 -21 -101 -18
-32 2 -58 1 -58 -3 0 -30 104 -27 167 4 52 27 131 104 157 155 22 42 13 41
-13 -2z"/>
<path d="M6576 3603 c-4 -9 -2 -21 4 -27 7 -7 10 -4 10 8 0 15 3 16 15 6 18
-15 45 -6 45 16 0 12 -3 14 -13 6 -8 -7 -18 -7 -27 -2 -21 14 -27 12 -34 -7z"/>
<path d="M4823 3686 c3 -8 1 -16 -6 -19 -6 -2 1 -12 16 -22 29 -18 50 -14 29
7 -19 19 -14 28 15 28 35 0 27 6 -21 14 -32 6 -38 5 -33 -8z"/>
<path d="M4781 3645 c-1 -5 8 -21 19 -35 11 -14 20 -20 20 -14 0 7 -9 22 -20
35 -10 13 -19 20 -19 14z"/>
<path d="M4610 3594 c0 -8 5 -12 10 -9 6 3 10 10 10 16 0 5 -4 9 -10 9 -5 0
-10 -7 -10 -16z"/>
<path d="M4657 3593 c-4 -3 -7 -11 -7 -17 0 -6 5 -5 12 2 6 6 9 14 7 17 -3 3
-9 2 -12 -2z"/>
<path d="M4682 3589 c2 -7 10 -15 17 -17 8 -3 12 1 9 9 -2 7 -10 15 -17 17 -8
3 -12 -1 -9 -9z"/>
<path d="M4737 3593 c-13 -12 -7 -18 18 -18 28 0 33 10 9 19 -19 7 -19 7 -27
-1z"/>
<path d="M4865 3511 c49 -11 91 -19 93 -17 7 8 -67 27 -123 32 -56 4 -55 3 30
-15z"/>
<path d="M5278 3643 c7 -3 16 -2 19 1 4 3 -2 6 -13 5 -11 0 -14 -3 -6 -6z"/>
<path d="M5280 3610 c0 -5 9 -10 20 -10 11 0 20 5 20 10 0 6 -9 10 -20 10 -11
0 -20 -4 -20 -10z"/>
<path d="M5310 3570 c-8 -5 -12 -12 -9 -15 8 -8 39 5 39 16 0 11 -11 11 -30
-1z"/>
<path d="M5345 3530 c-3 -5 0 -10 8 -10 10 0 13 -8 9 -25 -5 -31 9 -32 34 -3
17 19 17 21 2 15 -13 -5 -18 -1 -18 13 0 21 -24 27 -35 10z"/>
<path d="M5421 3473 c-1 -39 5 -40 36 -11 19 18 23 19 23 5 0 -26 18 -29 30
-6 9 16 9 20 0 14 -6 -4 -18 1 -26 11 -13 18 -15 18 -27 2 -12 -15 -14 -15
-24 0 -10 14 -12 12 -12 -15z"/>
<path d="M5560 3465 c-13 -14 -19 -25 -13 -25 12 0 48 38 41 45 -2 3 -15 -6
-28 -20z"/>
<path d="M6920 3670 c0 -5 5 -10 10 -10 6 0 10 5 10 10 0 6 -4 10 -10 10 -5 0
-10 -4 -10 -10z"/>
<path d="M6760 3500 c0 -5 9 -10 19 -10 11 0 23 5 26 10 4 6 -5 10 -19 10 -14
0 -26 -4 -26 -10z"/>
<path d="M6780 3470 c0 -5 7 -10 16 -10 11 0 14 -6 9 -20 -7 -22 10 -27 35 -9
11 8 12 12 3 16 -7 2 -13 11 -13 19 0 8 -10 14 -25 14 -14 0 -25 -4 -25 -10z"/>
<path d="M4205 3520 c-3 -5 -1 -10 4 -10 6 0 11 5 11 10 0 6 -2 10 -4 10 -3 0
-8 -4 -11 -10z"/>
<path d="M6967 3159 c-3 -13 -1 -19 6 -16 15 5 22 37 9 37 -5 0 -12 -9 -15
-21z"/>
<path d="M4090 3087 c0 -3 30 -12 68 -22 37 -9 83 -25 102 -36 19 -11 26 -17
15 -15 -63 16 -166 27 -202 21 -66 -10 -51 -23 20 -18 38 2 95 -3 150 -15 48
-10 87 -15 87 -11 0 14 -52 48 -103 67 -53 20 -137 38 -137 29z"/>
<path d="M4911 3109 c-11 -30 -5 -38 12 -15 9 13 24 17 52 14 l40 -3 -3 -42
c-3 -41 -3 -42 32 -49 49 -9 64 -1 72 40 9 52 44 44 78 -19 l17 -30 -5 33 c-4
23 -2 31 5 26 7 -4 10 -1 7 7 -8 24 -93 48 -197 55 -100 7 -101 7 -110 -17z
m157 -40 c39 -13 33 -37 -8 -31 -21 3 -30 10 -30 23 0 22 -2 22 38 8z"/>
<path d="M4907 3033 c-4 -3 -7 -11 -7 -17 0 -6 5 -5 12 2 6 6 9 14 7 17 -3 3
-9 2 -12 -2z"/>
<path d="M5198 2994 c-5 -4 -8 -19 -8 -33 0 -18 3 -22 11 -14 6 6 9 21 7 33
-1 12 -6 18 -10 14z"/>
<path d="M5146 2952 c-22 -43 -65 -91 -110 -123 -21 -16 -34 -29 -27 -29 23 0
69 29 95 61 31 37 70 109 62 116 -2 3 -11 -9 -20 -25z"/>
<path d="M4892 2945 c-2 -26 -17 -89 -39 -158 -4 -12 -1 -18 8 -16 8 2 38 -3
68 -10 61 -16 135 -10 186 15 45 21 46 37 0 18 -43 -17 -235 -20 -197 -2 12 6
22 15 22 20 0 5 -9 4 -19 -2 -35 -18 -39 -12 -29 41 5 27 7 67 5 87 -3 32 -4
33 -5 7z"/>
<path d="M5187 2923 c-4 -3 -7 -13 -7 -22 1 -13 3 -13 11 2 11 19 8 33 -4 20z"/>
<path d="M5096 2450 c36 -36 318 -121 357 -107 7 2 -8 7 -33 11 -70 12 -148
36 -235 72 -82 35 -107 42 -89 24z"/>
<path d="M4113 2418 c4 -12 -1 -18 -16 -21 l-22 -4 22 -2 c12 0 24 -9 26 -18
4 -17 5 -17 6 0 1 13 11 17 44 19 l42 1 -40 4 c-22 2 -46 12 -54 21 -13 16
-13 16 -8 0z"/>
<path d="M4228 2383 c6 -2 18 -2 25 0 6 3 1 5 -13 5 -14 0 -19 -2 -12 -5z"/>
<path d="M3650 2130 c0 -5 5 -10 11 -10 5 0 7 5 4 10 -3 6 -8 10 -11 10 -2 0
-4 -4 -4 -10z"/>
<path d="M3600 2111 c0 -5 9 -7 20 -4 11 3 20 7 20 9 0 2 -9 4 -20 4 -11 0
-20 -4 -20 -9z"/>
<path d="M5012 1984 c46 -46 312 -93 438 -76 l75 9 -107 2 c-119 1 -298 31
-367 62 -53 23 -60 24 -39 3z"/>
<path d="M5040 1846 c0 -11 118 -66 197 -92 81 -26 265 -45 276 -28 3 5 -30 9
-72 10 -65 1 -100 9 -222 51 -79 28 -152 54 -161 58 -10 4 -18 4 -18 1z"/>
<path d="M5560 1590 c0 -5 5 -10 10 -10 6 0 10 5 10 10 0 6 -4 10 -10 10 -5 0
-10 -4 -10 -10z"/>
<path d="M5580 1560 c0 -5 5 -10 10 -10 6 0 10 5 10 10 0 6 -4 10 -10 10 -5 0
-10 -4 -10 -10z"/>
<path d="M4030 874 c-6 -14 -20 -47 -31 -75 -21 -49 -22 -49 -68 -49 -25 0
-52 -4 -59 -8 -7 -5 29 -8 80 -8 56 0 102 -5 116 -12 13 -8 22 -9 22 -3 0 6
-19 16 -42 22 -54 16 -51 14 -40 36 13 24 42 123 36 123 -2 0 -9 -12 -14 -26z"/>
<path d="M4199 867 c-53 -46 -68 -75 -84 -163 -18 -93 -38 -118 -109 -139
-117 -35 -134 -2 -59 114 l23 36 -35 -39 c-19 -22 -40 -57 -47 -77 -9 -33 -13
-37 -30 -28 -10 6 -28 25 -38 42 -16 26 -20 28 -20 12 0 -49 64 -95 133 -95
56 0 134 28 156 57 21 26 28 48 51 157 10 48 21 69 57 108 53 56 53 61 2 15z"/>
<path d="M3765 607 c-22 -25 -26 -37 -13 -37 7 0 18 11 25 25 12 26 5 33 -12
12z"/>
<path d="M3730 540 c0 -5 7 -10 16 -10 8 0 12 5 9 10 -3 6 -10 10 -16 10 -5 0
-9 -4 -9 -10z"/>
<path d="M3871 469 c-1 -32 2 -48 9 -44 5 3 10 15 10 25 0 30 11 50 29 50 14
0 14 2 1 10 -34 22 -47 12 -49 -41z"/>
<path d="M4723 460 c0 -25 2 -35 4 -22 2 12 2 32 0 45 -2 12 -4 2 -4 -23z"/>
<path d="M4571 441 c-2 -76 16 -126 59 -165 21 -18 43 -35 50 -38 9 -3 10 -13
2 -41 -6 -20 -6 -37 -2 -37 5 0 14 18 20 40 8 28 16 40 29 40 21 0 71 36 71
51 0 6 -12 1 -26 -10 -40 -31 -62 -27 -67 12 l-4 32 -1 -32 c-2 -26 -5 -30
-22 -26 -11 3 -33 20 -49 39 -27 30 -38 64 -54 164 -2 14 -5 1 -6 -29z"/>
<path d="M4440 251 c0 -39 16 -81 42 -108 33 -35 40 -27 13 13 -13 19 -27 55
-31 80 -7 49 -24 60 -24 15z"/>
</g>
</svg>
